<?xml version="1.0" encoding="utf-8"?>
<!-- Generator: Adobe Illustrator 13.0.0, SVG Export Plug-In . SVG Version: 6.00 Build 14948)  -->
<!DOCTYPE svg PUBLIC "-//W3C//DTD SVG 1.1//EN" "http://www.w3.org/Graphics/SVG/1.1/DTD/svg11.dtd">
<svg version="1.1" id="Layer_1" xmlns="http://www.w3.org/2000/svg" xmlns:xlink="http://www.w3.org/1999/xlink" x="0px" y="0px"
	 width="3864.088px" height="2444.827px" viewBox="-937.974 -1067.7 3864.088 2444.827"
	 enable-background="new -937.974 -1067.7 3864.088 2444.827" xml:space="preserve">
<path fill="#FFFFFF" fill-opacity="0" stroke="#0000FF" stroke-width="1.1489" stroke-opacity="0.8" d="M-834.531-225.864h0.123
	l2.479-1.759l2.477-1.724l2.479-1.876l2.477-1.407l2.48-1.599l2.477-2.332l2.479-2.915l2.477,0.99l2.479-2.332l2.479-1.989
	l2.479-2.489l2.477-0.508l2.479,2.532l2.477-1.815l2.479,7.527l2.479,2.302l2.477,2.028l2.479-0.326l2.477-0.178l2.48-1.372
	l2.477-0.782l2.479-3.943l2.477,2.962l2.479-2.159l2.479,0.86l2.477-1.416l2.479,1.016l2.477,0.109l2.479,0.26l2.479-0.508
	l2.479-0.513l2.477-3.479l2.479-3.031l2.477,1.811l2.48,2.61l2.477,4.056l2.477-0.833l2.479-4.026l2.477-2.936l2.48-3.436
	l2.477-0.725l2.479,0.243l2.477-3.487l2.479,0.23l2.479,0.074l2.479-4.517l2.477,3.349l2.479-0.096l2.477,2.224l2.479-4.243
	l2.479,1.398l2.477-3.518h2.479l2.477-1.503l2.48,2.671l2.477-0.669l2.479,4.004l2.477-0.504l2.479,4.004l2.479-6.506l2.477,3.835
	h2.479l2.477,1.503l2.479-2.333l2.479-0.169l2.479,1.503l2.477,0.829l2.479,1.672l2.477,2.832l2.48,2.007l2.477-1.668l2.479-1.672
	l2.477-0.669l2.477-0.165l2.48-1.833l2.477-2.836l2.479,1.338l2.477,4.165l2.479,3.505l2.479-0.165l2.479-0.669l2.477-4.004
	l2.479-0.165l2.477,4.334l2.479,3.67l2.479,0.334l2.477,0.5l2.479,2.502l2.477-1.333l2.48-2.002l2.477,2.671l2.479-2.671
	l2.477,4.838l2.479-4.838l2.479,1.499l2.477-0.165l2.479,2.167l2.477,3.34l2.479,3.001l2.477,6.337l2.48-5.003l2.477,3.17
	l2.479-2.671l2.477,3.001l2.48-0.5l2.477,2.836l2.479,3.666l2.477-1.663l2.479-2.671l2.477,1.667l2.479,1.668l2.479,2.002
	l2.477-2.501l2.479-3.001l2.479-1.668l2.479-0.834l2.477,2.667l2.479-1.503l2.477,2.006l2.479-2.006l2.479,1.168l2.477-1.168
	l2.479,0.339l2.477-3.006l2.48,1.333l2.477,0.504l2.479-1.168l2.477,3.001l2.479,3.335l2.477,0.669l2.48,0.664l2.477,3.84
	l2.477,1.333l2.479,1.503l2.479-4.504l2.479,2.332l2.477-0.664l2.479,2.501l2.477,1.499h2.479l2.479-2.667l2.479,3.171l2.477-3.675
	l2.479,0.504l2.477-0.504l2.479-0.999l2.479-0.669l2.477-1.333l2.479,5.672l2.477,0.334l2.48-0.169l2.477-1.333h2.479l2.477-2.167
	l2.479,2.501l2.479-3.335l2.477-3.171l2.479-4.334l2.477-1.338l2.479,6.341l2.479-6.002l2.479-2.172l2.477-2.002l2.479,0.169
	l2.477-0.834l2.48-0.669l2.477-0.334l2.479-3.831l2.477,2.163l2.477-0.165l2.48-0.169l2.477-1.829l2.479-1.003l2.477-2.167
	l2.479,4.834l2.479-4.669l2.479,0.664l2.477-2.832l2.479-2.836l2.477,2.836l2.479,0.834l2.479,4l2.477,0.339l2.479,1.664
	l2.477-3.501l2.48,0.834l2.477,2.832l2.479-5.837l2.477-4.999l2.479,1.499l2.479,2.002l2.477,0.5l2.479-2.002l2.477-3.001
	l2.479-0.834l2.479-4.504l2.479,1.503l2.477-1.338l2.479-0.33l2.477-3.5l2.48-3.005l2.477-0.5l2.479,1.668l2.477,0.999l2.479,1.502
	l2.479-4.339l2.477-2.163l2.479-4.838l2.477-1.672l2.479,0.339l2.479,1.833l2.479,0.334l2.477,1.168l2.479,1.333l2.477,4.334
	l2.479-0.5l2.479,1.168l2.477-3.67l2.479,0.169l2.477-0.334h2.48l2.477,1.998l2.479,4.174l2.477,2.667l2.479,1.333l2.479,0.833
	l2.479-3.166l2.477,2.667l2.477-4.838l2.479,0.169l2.479,2.333l2.479-2.333l2.477,4l2.479-0.829l2.477,5.837l2.48-0.169l2.477-0.169
	l2.479,0.339l2.477-0.669l2.479-0.668l2.479,0.5l2.477,0.838l2.479-0.504l2.477,2.172l2.479,6.167l2.479,5.507l2.479,1.164
	l2.477-0.669l2.479,2.671l2.477,1.667l2.48-1.333l2.477,2.667l2.477-2.167l2.479,2.502l2.477,1.333l2.48,3.001l2.477,3.17
	l2.479-0.999l2.477,1.833l2.479-0.5l2.479-0.834l2.479,2.337l2.477,0.829l2.479,3.171l2.477,4.838l2.479-3.335l2.479,5.003
	l2.477-2.836l2.479,2.167l2.477-3.17l2.48,5.173l2.477,1.337h2.479l2.477,0.165l2.479,1.833l2.479-2.836l2.477,4.004l2.479-1.333
	l2.477,1.168l2.479-3.001l2.477,2.333l2.48-3.67l2.477,2.167l2.479,4.838l2.477-2.836l2.48,3.17l2.477,2.501l2.479-0.833
	l2.477-1.003l2.477,0.334l2.479,2.167l2.479,1.338l2.479,2.501l2.477,3.336l2.479,1.667l2.479-1.833l2.479,8.334l2.477-2.333
	l2.479,0.165l2.477-1.667l2.479,0.5l2.479,4.339l2.477,7.67l2.479,2.501l2.477-0.33l2.48-7.34l2.477,2.501l2.479-2.671l2.477,1.833
	l2.479-0.504l2.477-1.672l2.479-2.006l2.479-6.007l2.477,3.158l2.479-6.002l2.479,3.323l2.479,2.827l2.477-1.511l2.479-4.004
	l2.477,0.321l2.479,2.324l2.479-1.177l2.479-2.171l2.477-4.165l2.479-1.342l2.479-2.167l2.477,0.66l2.479,0.821l2.477-2.493
	l2.479-1.667l2.477-2.333l2.48-3.322l2.477-1.998l2.479-1.333l2.477,0.5l2.479,1.49l2.479-0.5l2.477,5.812l2.479-3.653l2.477,2.324
	l2.479,1.16l2.479,0.5l2.479-1.664l2.477-0.995l2.479-2.654l2.479,3.979l2.479,2.658l2.477,1.494l2.477,1.16l2.479-0.165
	l2.477-3.157l2.48,1.659l2.477-5.307l2.479,3.979l2.477-3.483l2.48-0.169l2.477-6.302l2.479-4.812l2.477-0.5l2.479,0.995l2.477-0.83
	l2.479-0.33l2.479-3.978l2.477-5.807l2.479-0.665h2.477l2.48,1.16l2.477-4.317l2.479,1.998l2.477-3.327l2.479,1.664l2.479-3.818
	l2.477,1.164h2.479l2.477-0.665l2.479-2.827l2.479,3.657l2.479,0.66l2.477,4.152l2.479-3.488l2.477,3.488l2.48,2.992l2.477-0.33
	l2.479,4.816l2.477,0.669l2.477,0.5l2.48,3.657l2.477,2.163l2.479,2.328l2.477-0.33l2.479-3.657l2.479,4.161l2.479,4.326
	l2.477,0.334l2.479-1.329l2.477-1.164l2.479-3.991l2.479-3.497l2.477-0.495l2.479-0.995l2.477-3.666l2.48-3.322l2.477,4.326
	l2.479,4.161l2.477-0.165l2.479-3.162l2.479-7.158l2.477-7.826l2.479-5.499l2.477,6.328l2.479-9.156l2.479,4.33l2.479-0.169
	l2.477-3.001l2.479-8.83l2.477,2.333l2.48-2.167l2.477-4.33l2.479,8.66l2.477-8.33l2.479,1.333l2.479-0.5l2.477,4.995l2.479,4.665
	l2.477,9.998l2.479-8.83l2.479-4.169l2.479-6.832l2.477,4.5l2.479-0.669l2.477-3.166l2.479-4.834l2.477,10.163l2.48,0.334
	l2.479,2.832l2.477-6.333l2.479,15.006l2.477,2.997l2.479-10.002l2.477-7.167l2.479-0.169l2.477,6.667l2.479-10.502l2.477-7.335
	l2.48,11.001l2.479-15.67l2.477,6.832l2.479,3.839l2.477-3.335l2.479,4.5l2.477,4.504l2.479-11.839l2.477-5.668l2.48-5.837
	l2.479,5.337l2.477-10.671l2.479-3.839l2.477,17.177l2.479-23.336l2.477,18.341l2.479,4.334l2.477,6.675l2.479-14.163l2.477,14.337
	l2.482-9.325l2.477-2.493l2.477,15.327l2.479-4.656l2.477,5.168l2.479,6.498l2.477-5.655l2.479-6.15l2.477-1.494l2.479-5.316
	l2.48,5.494l2.479,0.339l2.477,31.753l2.479-15.788l2.477,2.493l2.479-11.466l2.477-8.469l2.477,35.223l2.479-40.2l2.477,29.738
	l2.482-11.792l2.477,1.994l2.479-7.64l2.477,7.64l2.479,10.463l2.477-2.489l2.479-23.414l2.477,15.939l2.479,11.957l2.477-18.767
	l2.48,13.95l2.479-34.871l2.477,16.938l2.479,13.951l2.477,14.945l2.479-29.395l2.477,15.114l2.479,5.646l2.477-26.407l2.479,28.231
	l2.48,12.951l2.477-11.788l2.479,30.719l2.477-59.28l2.479,51.64l2.477-18.597l2.479-35.866l2.477,18.763l2.479-2.159l2.477-23.08
	l2.48,11.623l2.479,46.659l2.477-69.904l2.479,29.556l2.477-9.129l2.479,54.789l2.477-46.819l2.479,91.315l2.477-45.66l2.479,28.387
	l2.48-43.992l2.477,11.948l2.479-18.754l2.477,17.594l2.479,13.438l2.477-46.463l2.479,60.4l2.477-64.379l2.479,44.96l2.477-56.409
	l2.482,69.847l2.477,0.495l2.479-34.172l2.477,30.681l2.479-55.558l2.477,36.482l2.477-42.945l2.479,54.55l2.477-55.875
	l2.479,93.665l2.48-76.917l2.479,60.166l2.477,2.81l2.479-25.195l2.477-3.153l2.479-61.278l2.477,27.827l2.479-3.809l2.477,21.854
	l2.479,35.58l2.48-10.268l2.477-10.758l2.479-5.959l2.477-7.114l2.479,71.424l2.477-18.867l2.479-36.036l2.477-3.809l2.479-22.628
	l2.477,23.275l2.48,7.913l2.479-22.445l2.477,43.706l2.479-20.131l2.477-48.8l2.479-2.467l2.477,43.01l2.479,29.638l2.477-19.279
	l2.479,36.535l2.48-51.362l2.477-37.021l2.479-5.26l2.477,13.325l2.479,38.637l2.477,5.911l2.479,14.619l2.477-48.31l2.479,103.637
	l2.477-136.806l2.48,55.163l2.479-16.583l2.477-61.851l2.479,97.604l2.477-50.676l2.479,66.88l2.477-86.698l2.479,48.166
	l2.477,2.945l2.479,48.288l2.48-26.537l2.479,42.368l2.477-89.004l2.479-59.997l2.477,53.465l2.477-33.794l2.479,58.616
	l2.477,31.145l2.479,121.249l2.477-134.504l2.479,36.591l2.48-98.599l2.479,38.533l2.477,22.889l2.479,27.887l2.477-73.174
	l2.479-53.794l2.477,60.296l2.479-5.342l2.477,93.504l2.48-80.227l2.479,34.411l2.477-41.842l2.479,51.501l2.477-66.347
	l2.479,28.887l2.477-31.775l2.479,39.832l2.477,21.92l2.479-94.277l2.477,7.592l2.48,46.555l2.479,56.5l2.477,41.503l2.479-52.969
	l2.477-29.92l2.479-48.205l2.477-113.666l2.479-7.214l2.477,306.463l2.48-20.76l2.479-34.589l2.477,43.041l2.479-249.468
	l2.477-143.525l2.479,270.211l2.477,160.376l2.479-295.31l2.477,413.983l2.479-198.457l2.477-136.688l2.48-156.506l2.479,146.326
	l2.477,212.603l2.479-297.772l2.477,433.979l2.479-118.421l2.477-259.514l2.479-115.841l2.477-159.903l2.482,663.916l2.477-390.161
	l2.479,184.125l2.477,212.75l2.477-470.231l2.479-13.286l2.477-269.003l2.479,775.144l2.477-387.898l2.479-6.762l2.477,415.851
	l2.482-472.95l2.477-16.252l2.479-303.271l2.477,815.853l2.479-411.377l2.477-132.176l2.479,467.422l2.477-330.277l2.477-132.753
	l2.482-284.661l2.477,962.365l2.479-548.83l2.477-210.097l2.479,604.8l2.477-371.693l2.479-204.316l2.477-262.076l2.479,1040.794
	l2.477-624.84l2.479-215.334l2.48,716.672l2.477-406.899l2.479-260.508l2.477-290.572l2.479,1099.923l2.477-650.278l2.479-263.383
	l2.477,768.534l2.479-429.801l2.48-243.47l2.477-334.134l2.479,1173.214l2.477-640.598l2.479-381.096l2.477,855.576l2.479-427.968
	l2.477-288.334l2.479-269.334l2.477,1128.684l2.479-623.971l2.48-423.551l2.477,927.985l2.479-471.005l2.477-265.95l2.479-74.433
	l2.477,855.059l2.479-422.192l2.477-534.229l2.479,871.198l2.48-430.157l2.479-327.132l2.477,228.369l2.477,399.737l2.479-158.691
	l2.477-550.133l2.479,729.645l2.477-421.805l2.479-364.158l2.477,710.778l2.479-129.47l2.48-125.592l2.479-112.527l2.477,308.739
	l2.479-388.606l2.477-34.663l2.479,512.968l2.477-200.585l2.477-171.895l2.479,108.81l2.477,4.899l2.482-374.156l2.477,462.853
	l2.479,77.843l2.477-252.869l2.479,101.896l2.477,33.79l2.479-259.513l2.477,34.993l2.479,327.61l2.477-21.759l2.48-262.915
	l2.479,167.147l2.477-55.015l2.479-329.317l2.477,496.486l2.479-14.441l2.477-163.725l2.479,22.202l2.477,60.583l2.479-296.392
	l2.48,130.304l2.477,310.593l2.479-81.021l2.477-207.991l2.479,117.535l2.477-100.423l2.479-171.295l2.477,395.082l2.479,25.112
	l2.477-254.406l2.48,141.735l2.479-98.886l2.477-249.984l2.479,256.104l2.477,200.086l2.479-47.527l2.477-236.525l2.479,150.495
	l2.477-251.196l2.479,101.513l2.48,201.289l2.477,32.812l2.479-226.232l2.477,169.662l2.479-147.564l2.477-215.309l2.479,386.265
	l2.477,26.398l2.479-13.499l2.477-165.188l2.479,26.181l2.48-263.878l2.479,395.146l2.477,28.079l2.479-23.062l2.477-131.833
	l2.477,74.664l2.479-266.467l2.477,92.136l2.479,243.331l2.48,11.565l2.479-204.998l2.477,181.202l2.479-201.106l2.477-254.267
	l2.479,498.427l2.477-31.119l2.479-49.564l2.477-117.705l2.479,86.468l2.477-364.918l2.48,369.201l2.479,181.362l2.477-80.444
	l2.479-194.522l2.477,153.371l2.479-219.917l2.477-87.52l2.479,372.875l2.477,37.468l2.48-211.139l2.479,10.12l2.477-31.206
	l2.479-333.043l2.477,504.121l2.479,10.037l2.477-101.044l2.479-73.087l2.477,74.142l2.479-314.676l2.477,277.19l2.48,221.984
	l2.479-64.961l2.477-229.216l2.479,178.778l2.477-192.481l2.479-212.173l2.477,554.155l2.479-61.447l2.477-236.964l2.48,28.535
	l2.479,4.708l2.477-403.364l2.479,542.845l2.477,13.39l2.479-183.404l2.477,29.277l2.479-20.912l2.477-252.881l2.479,391.351
	l2.477,164.515l2.482-191.816l2.477-150.7l2.479,209.059l2.477-277.672l2.477-128.098l2.479,586.186l2.477-134.013l2.479-448.468
	l2.477,393.805l2.482-138.065l2.477-680.542l2.479,978.431l2.477-49.959l2.479-492.034l2.477,276.018l2.479,105.196l2.477-522.78
	l2.479,477.194l2.477,273.524l2.477-350.812l2.482-53.951l2.477,198.687l2.479-281.095l2.477-110.781l2.479,488.981l2.477,10.111
	l2.479-420.971l2.477,124.845l2.479,146.899l2.48-760.069l2.477,797.651l2.479,215.886l2.477-659.129l2.479,242.341l2.477,221.445
	l2.479-515.036l2.477,141.766l2.479,466.679l2.477-307.241l2.479-177.883l2.48,421.636l2.477-301.542l2.479-494.362l2.477,921.04
	l2.479-83.558l2.477-545.694l2.479,408.007l2.477,99.293l2.479-699.139l2.48,649.427l2.477,327.775l2.479-682.817l2.477,135.672
	l2.479,436.203l2.477-572.67l2.479-237.602l2.477,864.036l2.479-140.067l2.477-538.176l2.479,387.529l2.48,40.899l2.479-830.854
	l2.477,894.234l2.477,267.001l2.479-816.652l2.477,266.124l2.479,327.276l2.477-640.423l2.479,170.183l2.477,474.783l2.482-341.76
	l2.477-163.508l2.479,407.642l2.477-250.893l2.479-749.12l2.477,1111.432l2.479-51.706l2.477-623.858l2.477,416.163l2.479,140.293
	l2.48-671.255l2.479,550.441l2.477,362.477l2.479-665.822l2.477,117.505l2.479,521.143l2.477-584.292l2.479-294.62l2.477,916.763
	l2.479-201.154l2.48-499.388l2.477,451.639l2.479-39.093l2.477-841.595l2.479,998.813l2.477,254.719l2.479-917.093l2.477,331.467
	l2.479,352.01l2.477-685.774l2.48,197.18l2.479,482.544l2.477-397.818l2.479-158.656l2.477,491.939l2.479-336.683l2.477-771.097
	l2.479,1131.458l2.477,10.333l2.479-700.507l2.48,451.165l2.477,136.319l2.479-715.517l2.477,674.387l2.479,326.033l2.477-782.779
	l2.479,175.716l2.477,540.487l2.479-605.035l2.477-142.986l2.482,735.826l2.477-222.866l2.479-362.66l2.477,461.081l2.477-227.092
	l2.479-791.744l2.477,1064.062l2.479,225.814l2.477-935.082l2.479,350.742l2.48,321.881l2.479-715.977l2.477,365.717l2.479,447.069
	l2.477-631.351l2.479,69.83l2.477,497.029l2.479-438.917l2.477-301.478l2.477,764.482l2.479-106.555l2.48-412.485l2.479,386.651
	l2.477-152.567l2.479-736.147l2.477,1001.024l2.479,234.536l2.477-864.258l2.479,267.623l2.477,320.565l2.48-646.89l2.479,339.376
	l2.477,428.997l2.479-582.542l2.477,9.933l2.479,483.756l2.477-405.001l2.479-209.445l2.477,584.457l2.479-61.083l2.477-407.95
	l2.48,395.924l2.479-158.813l2.477-803.718l2.479,1029.65l2.477,171.625l2.479-697.228l2.477,202.866l2.479,215.604l2.477-507.026
	l2.48,379.858l2.479,368.696l2.477-546.445l2.479,9.711l2.477,405.709l2.479-367.107l2.477-125.262l2.479,501.238l2.477-91.911
	l2.479-332.93l2.477,327.18l2.482-141.54l2.477-732.686l2.477,892.649l2.479,237.763l2.477-603.476l2.479,112.948l2.477,189.411
	l2.479-423.816l2.477,278.358l2.482,416.411l2.477-442.044l2.479-177.401l2.477,439.838l2.479-270.923l2.477-140.28l2.479,400.25
	l2.477-10.163l2.477-329.096l2.479,249.811l2.477-105.904l2.482-564.822l2.477,618.134l2.479,250.301l2.477-368.327l2.479,13.79
	l2.477,91.076l2.479-348.692l2.477,303.245l2.479,392.71l2.48-395.716l2.477-210.006l2.479,349.17l2.477-181.983l2.479-103.003
	l2.477,323.623l2.479,5.507l2.477-259.953l2.479,150.574l2.477-65.682l2.479-538.91l2.48,531.657l2.477,331.537l2.479-331.445
	l2.477-111.719l2.479,141.322l2.477-260.56l2.479,171.842l2.477,351.875l2.479-242.91l2.48-248.582l2.477,289.677l2.479-124.015
	l2.477-122.108l2.479,282.576l2.477,79.224l2.479-266.789l2.477,58.611l2.479,25.499l2.477-487.461l2.479,450.505l2.48,356.927
	l2.477-271.917l2.479-193.159l2.477,134.396l2.479-190.157l2.477,75.35l2.479,311.158l2.477-152.411l2.479-207.37l2.48,176.754
	l2.479-44.105l2.477-186.175l2.479,256.365l2.477,149.279l2.479-188.503l2.477-78.464l2.477,45.708l2.479-376.341l2.477,372.67
	l2.479,339.937l2.48-230.401l2.479-190.844l2.477,74.321l2.479-152.164l2.477,80.614l2.479,315.437l2.477-132.172l2.479-244.842
	l2.477,158.926l2.479-52.47l2.48-67.228l2.477,186.049l2.479,107.342l2.477-160.554l2.479-40.705l2.477-35.514l2.479-295.297
	l2.477,287.336l2.479,321.682l2.477-155.499l2.48-189.945l2.479-14.185l2.477-160.697l2.479,225.106l2.477,356.493l2.479-221.836
	l2.477-252.634l2.479,93.713l2.477-70.881l2.479,8.169l2.48,274.854l2.477-30.068l2.479-173.775l2.477,23.527l2.479-28.191
	l2.477-64.114l2.479,130.639l2.477,185.102l2.479-97.318l2.477-144.163l2.48-52.987l2.479-225.181l2.477,266.015l2.479,320.388
	l2.477-92.08l2.479-243.131l2.477-89.942l2.479-85.378l2.477,240.873l2.479,309.508l2.48-160.663l2.479-210.297l2.477-46.068
	l2.479-27.558l2.477,111.846l2.477,159.507l2.479,1.433l2.477-125.001l2.479-40.022l2.477-86.429l2.482-11.97l2.477,89.917
	l2.479,226.449l2.477-14.333l2.479-204.364l2.477-158.517l2.479-140.002l2.477,370.855l2.479,223.695l2.477-75.458l2.48-225.359
	l2.479-132.045l2.477-13.165l2.479,168.858l2.477,158.774l2.479,21.572l2.477-107.046l2.479-117.114l2.477-96.705l2.479,9.829
	l2.48,112.979l2.477,245.337l2.479,0.465l2.477-236.859l2.479-132.81l2.477-59.506l2.479,158.244l2.477,235.782l2.479,40.561
	l2.477-135.051l2.48-191.017l2.479,21.056l2.477-28.218l2.479,76.9l2.477,211.682l2.479,42.741l2.477-220.651l2.479-68.709
	l2.477,32.148l2.479-70.851l2.477,85.934l2.48,182.04l2.479,11.848l2.477-173.914l2.479-29.095l2.477-51.306l2.479,13.16
	l2.477,79.315l2.479,105.739l2.477-33.985l2.482-55.319l2.477-1.676l2.479-58.793l2.477,19.718l2.477,42.403l2.479-20.027
	l2.477,24.296l2.479,58.516l2.477-67.723l2.479-49.686l2.477,25.369l2.482,17.277l2.477-16.526l2.479,58.142l2.477-50.39
	l2.479-15.049l2.477,27.653l2.479,2.949l2.477-35.453l2.477,19.54l2.482-7.596l2.477,75.823l2.479-90.755l2.477,88.284l2.479-65.074
	l2.477-28.487l2.479,153.861l2.477-103.71l2.479-39.692l2.477,40.878l2.479-45.008l2.48,50.976l2.477,38.029l2.479,4.747
	l2.477-100.414l2.479,66.464l2.477,16.543l2.479-78.633l2.477,57.473l2.479-58.272l2.48,121.483l2.477-92.61l2.479,100.08
	l2.477-82.603l2.479-47.484l2.477,13.803l2.479,64.388l2.477-56.271l2.479,32.921l2.477-22.068l2.479,2.919l2.48-7.948l2.477,15.835
	l2.479-2.12l2.477,3.614l2.479,0.89l2.477-78.395l2.479,107.194l2.477-81.808l2.479,46.35l2.48-85.574l2.479,156.194l2.477-69.308
	l2.477-64.127l2.479,68.371l2.477,31.992l2.479-37.056l2.477-49.886l2.479,58.759l2.477-40.113l2.479,91.745l2.48-82.798
	l2.479,38.75l2.477-60.271l2.479,26.545l2.477,51.297l2.479-132.792l2.477,161.879l2.477-24.504l2.479-87.498l2.48,78.755
	l2.479-63.806l2.477,43.314l2.479-54.477l2.477-16.938l2.479,68.487l2.477-46.924l2.479,49.56l2.477-85.634l2.479,105.162
	l2.477-55.159l2.48-24.022l2.479,27.114l2.477,22.246l2.479,4.326l2.477-96.349l2.479,26.867l2.477,81.6l2.479-79.762l2.477,87.367
	l2.48-93.183l2.479,28.804l2.477,16.938l2.479,6.159l2.477-14.758l2.479-78.933l2.477,122.147l2.479-29.772l2.477,4.56l2.479-4.46
	l2.477-38.906l2.479,60.557l2.48-54.007l2.477-11.531l2.479,11.071l2.477,28.53l2.479-43.688l2.477,76.47l2.479-22.267l2.477,35.505
	l2.482-89.557l2.477,27.015l2.477,5.008l2.479-4.018l2.477-7.305l2.479,80.562l2.477-130.191l2.479,38.446l2.477-13.941
	l2.479,48.526l2.477,31.054l2.479-135.473l2.48,133.757l2.479-148.719l2.477,81.37l2.479,29.39l2.477-78.907l2.477,73.491
	l2.479-54.32l2.477,78.711l2.482-51.476l2.477,46.177l2.479-36.457l2.477-18.584l2.479,67.975l2.477-40.183l2.479-62.924
	l2.477,107.637l2.479-34.52l2.477-95.211l2.479,145.075l2.477-42.663l2.48-69.183l2.479,74.312l2.477-10.411l2.479-11.9
	l2.477-20.339l2.479-10.15l2.477,91.063l2.479-188.346l2.48,199.804l2.477-177.627l2.479,79.966l2.477,46.954l2.479-16.63
	l2.477-57.365l2.479,35.158l2.477,80.227l2.479-111.741l2.477,60.444l2.479-34.698l2.477-6.215l2.48,33.629l2.479,7.235
	l2.477,15.036l2.479-11.214l2.477-14.328l2.479,27.896l2.477,33.182l2.479-51.602l2.48-36.782l2.477,102.625l2.479-70.815
	l2.477,29.312l2.479-67.515l2.477,96.579l2.479-16.448l2.477-16.039l2.479,13.051l2.477-48.553l2.479,7.323l2.477,64.292
	l2.482-88.444l2.477,43.149l2.479-9.103l2.477,54.737l2.477-2.25l2.479-67.715l2.477,40.935l2.479,41.547l2.48-84.071l2.479,47.345
	l2.477-18.293"/>
<path fill="#FFFFFF" fill-opacity="0" stroke="#0000FF" stroke-width="1.1489" stroke-opacity="0.8" d="M-937.4,818.207
	l2.477-47.483l2.479,13.803l2.477,64.387l2.479-56.27l2.477,32.921l2.479-22.067l2.477,2.918l2.482-7.947l2.477,15.835l2.479-2.119
	l2.477,3.613l2.479,0.891l2.477-78.391l2.479,107.189l2.477-81.808l2.477,46.351l2.482-85.574l2.477,156.198l2.479-69.312
	l2.477-64.123l2.479,68.366l2.477,31.996l2.479-37.061l2.477-49.886l2.479,58.759l2.477-40.113l2.479,91.745l2.48-82.798
	l2.477,38.75l2.479-60.267l2.477,26.546l2.479,51.293l2.477-132.793l2.479,161.879l2.477-24.504l2.479-87.493l2.48,78.75
	l2.477-63.806l2.479,43.314l2.477-54.477l2.479-16.938l2.477,68.492l2.479-46.928l2.477,49.56l2.479-85.634l2.477,105.161
	l2.479-55.158l2.48-24.022l2.477,27.114l2.479,22.246l2.477,4.326l2.479-96.345l2.477,26.862l2.479,81.6l2.477-79.763l2.479,87.367
	l2.48-93.183l2.479,28.804l2.477,16.938l2.477,6.159l2.479-14.759l2.477-78.929l2.479,122.144l2.477-29.772l2.479,4.564l2.477-4.465
	l2.479-38.901l2.477,60.557l2.482-54.012l2.477-11.531l2.479,11.071l2.477,28.53l2.479-43.688l2.477,76.471l2.477-22.264
	l2.479,35.506l2.48-89.561l2.479,27.015l2.477,5.008l2.479-4.018l2.477-7.306l2.479,80.562l2.477-130.19l2.479,38.445l2.477-13.941
	l2.479,48.526l2.477,31.058l2.479-135.477l2.48,133.757l2.477-148.719l2.479,81.374l2.477,29.386l2.479-78.907l2.477,73.491
	l2.479-54.32l2.477,78.712l2.48-51.476l2.479,46.177l2.477-36.457l2.479-18.584l2.477,67.979l2.479-40.187l2.477-62.92
	l2.479,107.633l2.477-34.52l2.479-95.212l2.477,145.075l2.479-42.663l2.48-69.182l2.477,74.312l2.479-10.411l2.477-11.896
	l2.479-20.339l2.477-10.154l2.479,91.063l2.477-188.343l2.482,199.8l2.477-177.627l2.477,79.966l2.479,46.959l2.477-16.635
	l2.479-57.364l2.477,35.158l2.479,80.227l2.477-111.741l2.479,60.444l2.477-34.698l2.479-6.215l2.48,33.634l2.479,7.235
	l2.477,15.036l2.479-11.214l2.477-14.332l2.477,27.896l2.479,33.183l2.477-51.602l2.482-36.782l2.477,102.625l2.479-70.815
	l2.477,29.312l2.479-67.511l2.477,96.575l2.479-16.447l2.477-16.039l2.479,13.051l2.477-48.553l2.479,7.323l2.477,64.292
	l2.48-88.444l2.479,43.149l2.477-9.1l2.479,54.733l2.477-2.25l2.479-67.715l2.477,40.939l2.479,41.542l2.48-84.07l2.477,47.345
	l2.479-18.294l2.477-40.135l2.479,86.846l2.477-10.667l2.479-43.588l2.477,5.681l2.479-15.77l2.477,38.441l2.479-17.746
	l2.477-35.771l2.48,59.822l2.479-29.434l2.477,37.829l2.479-30.241l2.477,23.905l2.479-30.402l2.477,6.619l2.479-7.944l2.48,0.656
	l2.477,4.421l2.479,6.311l2.477,17.499l2.479-19.927l2.477,35.714l2.479-35.705l2.477-7.553l2.479,21.455l2.477,0.791l2.479-6.884
	l2.477-11.467l2.482,10.146l2.477,16.191l2.479-12.709l2.477-12.843l2.477,18.459l2.479,14.346l2.477-8.266l2.479-12.426
	l2.477-20.069l2.482-38.637l2.477,12.664l2.479,37.877l2.477,73.621l2.479,27.21l2.477-69.703l2.479-180.924l2.477-144.046
	l2.479,255.8l2.477,314.803l2.477-62.503l2.482-231.079l2.477-180.489l2.479-153.023l2.477,392.315l2.479,343.089l2.477-261.511
	l2.479-255.783l2.477,90.064l2.479,42.785l2.48-123.316l2.477,17.347l2.479,242.202l2.477,65.495l2.479-247.184l2.477,6.58
	l2.479-31.054l2.477,12.156l2.479,32.413l2.477,179.474l2.479-48.691l2.48-147.299l2.477,79.814l2.479-134.035l2.477,19.575
	l2.479,72.904l2.477,201.893l2.479-159.62l2.477-96.176l2.479,182.688l2.48-162.865l2.477-172.928l2.479,129.035l2.477,320.675
	l2.479-164.732l2.477-193.662l2.479,218.274l2.477-38.076l2.479-507.475l2.477,339.763l2.479,428.511l2.48-207.195l2.479-325.769
	l2.477,194.804l2.477,257.859l2.479-539.944l2.477-3.022l2.479,577.23l2.477-122.777l2.479-414.019l2.48,247.228l2.479,267.652
	l2.477-414.213l2.479-129.87l2.477,308.592l2.479,363.115l2.477-481.541l2.479-107.815l2.477,481.724l2.477-174.926l2.479-656.354
	l2.48,563.505l2.479,489.672l2.477-508.951l2.479-356.058l2.477,543.409l2.479,222.211l2.477-704.125l2.479-14.45l2.477,515.045
	l2.48,172.802l2.479-660.059l2.477,105.065l2.479,608.566l2.477-341.791l2.479-759.93l2.477,703.425l2.479,512.808l2.477-745.35
	l2.479-214.141l2.477,710.996l2.479,36.804l2.48-676.702l2.477-286.445l2.479,885.883l2.477,81.595l2.479-777.103l2.477,228.125
	l2.479,735.887l2.477-405.9l2.48-758.015l2.479,663.307l2.477,401.219l2.479-321.582l2.477-487.435l2.479,574.858l2.477,207.474
	l2.479-545.572l2.477-548.874l2.479,1025.533l2.477,86.898l2.479-887.698l2.48,240.326l2.477,629.96l2.479-286.489l2.477-453.588
	l2.479-266.988l2.477,1016.89l2.479-133.053l2.477-728.017l2.482,503.969l2.477,463.908l2.479-569.521l2.477-464.612l2.479,673.367
	l2.477,143.924l2.479-172.832l2.477-521.898l2.477,540l2.479,242.771l2.477-615.71l2.479-358.143l2.48,836.118l2.479-37.552
	l2.477-565.751l2.479,199.022l2.477,484.077l2.479-121.856l2.477-465.628l2.479-397.001l2.477,1245.593l2.48-300.482l2.479-683.873
	l2.477,528.291l2.479,257.272l2.477-399.216l2.479-369.014l2.477,221.172l2.479,438.778l2.477-109.874l2.479-738.696l2.477,752.942
	l2.48,204.512l2.479-579.397l2.477-209.523l2.479,461.288l2.477,237.455l2.479-330.308l2.477-252.643l2.479,630.69l2.477-11.84
	l2.48-645.409l2.479-273.507l2.477,1132.306l2.479-291.701l2.477-489.459l2.479,182.635l2.477,338.503l2.479-152.037l2.477-581.517
	l2.479,266.394l2.477,576.995l2.48-247.565l2.479-623.741l2.477,613.305l2.479,195.643l2.477-475.569l2.479-376.336l2.477,689.31
	l2.479,143.863l2.477-462.796l2.482-152.406l2.477,586.32l2.479,43.093l2.477-670.742l2.479-124.541l2.477,839.167l2.477-133.188
	l2.479-628.44l2.477,456.012l2.479,327.124l2.477-379.538l2.482-513.06l2.477,476.82l2.479,420.207l2.477-425.483l2.479-303.667
	l2.477,600.813l2.479,93.218l2.477-743.6l2.479,30.646l2.48,691.19l2.477-34.814l2.479-688.29l2.477,400.358l2.479,316.679
	l2.477-315.806l2.479-620.7l2.477,817.624l2.479,196.868l2.477-426.639l2.479-228.829l2.48,444.571l2.477,31.245l2.479-644.467
	l2.477,144.168l2.479,592.326l2.477-10.197l2.479-589.908l2.477,389.84l2.479,154.004l2.48-405.557l2.477-346.377l2.479,664.376
	l2.477,116.401l2.479-490.232l2.477,128.046l2.479,243.835l2.477-54.746l2.479-674.344l2.477,667.76l2.479,204.386l2.48-162.109
	l2.477-326.689l2.479,266.758l2.477,79.389l2.479-511.396l2.477,152.94l2.479,328.727l2.477,79.22l2.479-353.344l2.48,192.611
	l2.479,114.464l2.477-278.854l2.479-185.314l2.477,372.744l2.477,212.616l2.479-417.701l2.477,143.291l2.479-4.513l2.477-0.795
	l2.479-415.247l2.48,436.164l2.479,123.541l2.477-65.474l2.479-111.502l2.477,54.794l2.479,71.923l2.477-462.957l2.479,318.138
	l2.477,81.183l2.48,102.599l2.479-243.087l2.477,131.111l2.479,38.911l2.477-222.401l2.479-53.786l2.477,286.472l2.479,126.521
	l2.477-262.337l2.479,80.57l2.477,8.552l2.48-85.422l2.479-271.892l2.477,338.659l2.479,75.28l2.477-1.211l2.479-68.245l2.477,9.82
	l2.479,12.33l2.477-230.388l2.48,37.607l2.479,188.737l2.477,79.888l2.479-139.099l2.477,73.847l2.479,23.467l2.477-174.635
	l2.479-121.066l2.477,199.096l2.479,70.959l2.477,1.824l2.48-5.352l2.479-14.506l2.477,22.198l2.479-187.843l2.477-40.4
	l2.479,168.924l2.477,106.942l2.479-72.645l2.477,13.89l2.482,22.819l2.477-111.26l2.479-132.293l2.477,116.293l2.479,43.215
	l2.477,111.177l2.477-62.65l2.479,4.091l2.477,6.185l2.479-115.376l2.477-97.214l2.479,105.666l2.48,92.457l2.479-1.606
	l2.477,50.862l2.479-40.274l2.477,1.664l2.479-123.008l2.477-41.812l2.477,56.2l2.482,109.57l2.477,9.338l2.479,3.596l2.477,0.682
	l2.479-50.193l2.477-62.868l2.479-60.938l2.477,70.033l2.479,80.105L370.9,861.5l2.479,4.078l2.477-16.921l2.48-43.854l2.479-48.591
	l2.477-40.752l2.479,7.4l2.477,140.437l2.479,10.736l2.477-28.521l2.479-5.498l2.48-21.017l2.477-32.774l2.479-104.648l2.477,57.925
	l2.479,104.94l2.477,27.64l2.479-47.866l2.477,40.283l2.479-17.59l2.477-49.843l2.479-123.732l2.477,71.736l2.48,109.726
	l2.479-9.269l2.477-1.828l2.479,19.444l2.477,14.241l2.479-100.936l2.477-49.847l2.479,25.495l2.477,81.621l2.482-4.747
	l2.477,44.947l2.479,1.746l2.477-9.607l2.477-42.424l2.479-75.22l2.477-9.915l2.479,25.39l2.477,84.723l2.479,27.588l2.477,5.255
	l2.482-30.449l2.477,7.231l2.479-87.567l2.477-61.561l2.479,47.032l2.477,93.761l2.479,23.201l2.477-38.78l2.477,53.538
	l2.482-25.038l2.477-84.375l2.479-72.883l2.477,37.017l2.479,98.417l2.477,3.192l2.479,3.952l2.477,55.506l2.479-21.925
	l2.477-120.692l2.479-68.926l2.48,41.929l2.477,84.996l2.479,38.924l2.477-4.565l2.479,53.443l2.477-34.576l2.479-89.443
	l2.477-79.55l2.479,26.276l2.48,69.864l2.477,57.021l2.479,46.181l2.477-26.919l2.479-3.231l2.477-75.641l2.479-76.922l2.477-37.916
	l2.479,114.852l2.477,62.324l2.479,58.333l2.48-50.055l2.477-30.541l2.479-22.099l2.477-123.729l2.479-7.696l2.477,103.229
	l2.479,115.221l2.477-33.59l2.479-13.659l2.48-16.227l2.479-33.025l2.477-156.78l2.477,24.261l2.479,130.777l2.477,101.162
	l2.479-14.88l2.477-68.618l2.479,33.456l2.477-75.55l2.479-148.15l2.48,18.562l2.479,180.993l2.477,89.899l2.479-49.529
	l2.477-41.673l2.479,20.561l2.477-72.922l2.477-193.714l2.479,80.37l2.48,186.335l2.479,80.875l2.477-67.546l2.479-29.26l2.477,12.3
	l2.479-85.912l2.477-69.352l2.479,67.51l2.477,146.73l2.479-36.161l2.477-65.461l2.48-21.646l2.479,33.399l2.477-151.959
	l2.479-74.812l2.477,217.871l2.479,212.629l2.477-84.597l2.479-140.089l2.477,13.508l2.48-50.512l2.479-217.254l2.477,70.819
	l2.479,266.992l2.477,69.3l2.479-143.537l2.477-56.77l2.479,40.482l2.477-98.903l2.479-7.461l2.477,143.993l2.48,165.575
	l2.479-24.465l2.477-138.104l2.479-29.772l2.477-9.56l2.479-248.786l2.477,50.89l2.479,272.486l2.477,125.748l2.482-156.685
	l2.477-74.794l2.477,32.965l2.479-108.806l2.477,35.106l2.479,93.131l2.477,176.724l2.479-6.354l2.477-167.168l2.479-28.578
	l2.477,1.533l2.482-249.46l2.477,41.443l2.479,275.461l2.477,130.378l2.479-112.027l2.477-76.762l2.477,15.84l2.479-100.936
	l2.477,44.23l2.482,38.811l2.477,166.718l2.479-2.506l2.477-180.398l2.479-24.77l2.477,57.27l2.479-175.742l2.477-225.063
	l2.479,244.777l2.477,270.918l2.479-31.805l2.477-120.602l2.48,37.355l2.479-77.135l2.477-63.731l2.479,118.712l2.477,188.781
	l2.479-3.566l2.477-124.115l2.479-96.909l2.48,8.083l2.477-102.521l2.479-216.047l2.477,204.828l2.479,285.655l2.477-17.107
	l2.479-113.783l2.477,20.613l2.479,1.259l2.477-284.53l2.479,123.373l2.477,274.788l2.48,104.41l2.479-93.361l2.477-111.685
	l2.479-25.76l2.477-92.07l2.479,40.704l2.477-14.637l2.479,193.406l2.48,21.477l2.477-170.282l2.479-53.969l2.477,98.643
	l2.479-164.62l2.477-255.5l2.479,243.482l2.477,288.995l2.479-23.427l2.477-89.27l2.479-5.233l2.477-77.709l2.482-188.871
	l2.477,177.197l2.479,229.055l2.477,30.402l2.477-97.952l2.479-98.104l2.477,30.693l2.479-97.244l2.477-54.602l2.482,25.32
	l2.477,230.861l2.479,26.25l2.477-179.898l2.479-6.215l2.477,70.686l2.479-198.427l2.477-206.666l2.479,283.982l2.477,236.256
	l2.477-77.399l2.482-98.226l2.477,53.413l2.479-44.761l2.477-245.686l2.479,158.947l2.477,245.485l2.479,45.495l2.477-133.071
	l2.479-67.036l2.48,59.249l2.477-101.152l2.479-41.825l2.477,40.535l2.479,237.129l2.477-30.25l2.479-212.629l2.477-11.35
	l2.479,83.315l2.477-214.097l2.479-192.151l2.48,312.162l2.477,232.499l2.479-156.954l2.477-79.619l2.479,171.591l2.477-27.271
	l2.479-377.683l2.477,83.142l2.479,369.844l2.48,64.344l2.477-197.731l2.479-52.318l2.477,131.78l2.479-107.749l2.477-114.495
	l2.479,148.332l2.477,222.692l2.479-56.709l2.477-205.259l2.479,38.546l2.48,109.718l2.479-240.742l2.477-138.431l2.477,290.146
	l2.479,248.547l2.477-195.135l2.479-212.768l2.477,167.373l2.479,45.43l2.48-379.42l2.479-43.22l2.477,424.59l2.479,70.085
	l2.477-292.917l2.479-1.072l2.477,250.923l2.479-133.471l2.477-457.015l2.477,278.284l2.479,412.95l2.48-136.484l2.479-304.279
	l2.477,181.267l2.479,217.615l2.477-281.295l2.479-358.034l2.477,415.868l2.479,337.899l2.477-287.701l2.48-219.147l2.479,250.84
	l2.477,125.036l2.479-401.019l2.477-3.592l2.479,435.008l2.477,128.749l2.479-392.358l2.477-86.072l2.479,365.317l2.477-69.226
	l2.48-498.914l2.479,145.67l2.477,539.966l2.479-42.416l2.477-440.246l2.479,116.706l2.477,304.213l2.479-270.445l2.477-496.251
	l2.48,321.408l2.479,478.904l2.477-268.295l2.479-270.532l2.477,379.22l2.479,176.221l2.477-455.926l2.479-364.961l2.477,511.122
	l2.479,276.591l2.477-443.143l2.482-53.955l2.477,528.039l2.477-60.093l2.479-509.672l2.477-156.545l2.479,516.499l2.477,66.677
	l2.479-404.537l2.477,174.691l2.482,349.8l2.477-206.405l2.479-391.959l2.477,0.222l2.479,470.896l2.477-144.463l2.479-318.529
	l2.477,325.048l2.477,203.921l2.479-260.686l2.477-249.025l2.482,152.933l2.477,324.513l2.479-267.562l2.477-184.02l2.479,300.122
	l2.477,122.456l2.479-237.78l2.477-124.15l2.479,67.502l2.48,259.67l2.477-212.46l2.479-123.076l2.477,284.773l2.479,35.762
	l2.477-188.29l2.479-139.998l2.477,301.395l2.479,128.893l2.477-334.407l2.479-78.768l2.477,276.643l2.48-44.426l2.479-151.321
	l2.477-114.551l2.479,328.553l2.477,109.969l2.479-291.475l2.477-30.376l2.479,201.81l2.48-85.312l2.477-142.722l2.479-74.946
	l2.477,354.399l2.479,49.669l2.477-283.783l2.479,38.646l2.477,158.187l2.479-95.463l2.477-148.94l2.479-89.899l2.477,349.557
	l2.48,81.248l2.479-275.749l2.477,39.905l2.479,128.011l2.477-107.294l2.479-120.093l2.477-73.452l2.479,332.77l2.48,45.278
	l2.479-248.474l2.477,48.431l2.479,140.129l2.477-99.555l2.479-125.248l2.477-125.601l2.477,325.426l2.479,54.337l2.477-236.334
	l2.479,93.317l2.477,71.963l2.482-119.568l2.477-134.981l2.479-88.027l2.477,369.791l2.479,35.167l2.477-199.422l2.479,84.771
	l2.477,60.809l2.479-92.184l2.48-143.316l2.477-133.848l2.479,371.48l2.477,42.42l2.479-208.833l2.477,89.443l2.479,44.791
	l2.477-106.135l2.479-158.108l2.477-89.5l2.479,421.575l2.48-39.884l2.477-173.971l2.479,151.677l2.477,12.986l2.479-136.106
	l2.477-144.836l2.479-61.461l2.477,399.573l2.479-103.977l2.48-128.05l2.477,197.576l2.479-36.596l2.477-130.104l2.479-141.019
	l2.477-24.218l2.479,346.013l2.477-139.226l2.479-76.574l2.477,231.079l2.479-83.397l2.48-140.532l2.477-123.65l2.479,51.471
	l2.477,272.582l2.479-196.164l2.477-23.535l2.479,244.238l2.477-86.595l2.479-107.48l2.48-123.406l2.479,145.665l2.477,124.276
	l2.479-255.684l2.477,75.106l2.477,269.634l2.479-142.665l2.477-128.932l2.479-87.124l2.477,261.716l2.479,42.138l2.48-271.357
	l2.479,91.311l2.477,204.603l2.479-147.902l2.477-60.514l2.479-87.428l2.477,279.444l2.479-5.073l2.477-251.157l2.48,102.387
	l2.479,134.795l2.477-100.479l2.479-86.968l2.477-107.702l2.479,305.512l2.477,10.38l2.479-230.244l2.477,107.142l2.479,90.477
	l2.477-96.961l2.48-104.358l2.479-125.253l2.477,342.712l2.479,4.222l2.477-201.802l2.479,129.748l2.477,45.312l2.479-128.467
	l2.477-148.176l2.48-87.711l2.479,377.587l2.477,3.388l2.479-151.464l2.477,123.989l2.479,2.758l2.477-120.38l2.479-147.599
	l2.477-97.187l2.479,360.418l2.477-50.937l2.48-64.979l2.479,231.974l2.477-71.502l2.479-162.834l2.477-168.741l2.479-27.918
	l2.477,299.18l2.479-126.643l2.477,15.283l2.482,268.773l2.477-117.73l2.479-118.969l2.477-156.146l2.477,82.742l2.479,171.964
	l2.477-229.581l2.479,92.245l2.477,255.452l2.479-107.749l2.477-92.884l2.482-137.874l2.477,197.44l2.479,43.593l2.477-253.251
	l2.479,113.688l2.477,167.455l2.479-74.063l2.477-68.479l2.477-124.497l2.482,286.736l2.477-8.994l2.479-261.494l2.477,105.882
	l2.479,129.345l2.477-66.047l2.479-102.377l2.477-130.651l2.479,329.229l2.477,18.359l2.479-232.456l2.48,104.432l2.477,41.265
	l2.479-89.773l2.477-134.413l2.479-92.231l2.477,392.905l2.479,23.527l2.477-168.993l2.479,109.587l2.48-0.508l2.477-133.019
	l2.479-162.378l2.477-96.28l2.479,396.493l2.477-6.497l2.479-90.495l2.477,213.524l2.479-74.881l2.477-184.89l2.479-188.516
	l2.48-24.265l2.477,305.451l2.479-112.419l2.477,27.966l2.479,258.206l2.477-95.081l2.479-171.398l2.477-165.471l2.479,81.525
	l2.48,187.309l2.479-199.17l2.477,82.242l2.477,240.938l2.479-102.03l2.477-94.447l2.479-157.045l2.477,243.597l2.479,22.389
	l2.477-265.759l2.479,114.438l2.477,166.234l2.482-43.562l2.477-88.9l2.479-145.788l2.477,321.213l2.479-14.401l2.477-268.869
	l2.477,106.651l2.479,103.354l2.48-46.659l2.479-103.489l2.477-125.852l2.479,352.648l2.477-19.279l2.479-215.326l2.477,139.299
	l2.479-43.263l2.477-39.614l2.479-114.99l2.477-107.367l2.479,370.008l2.48-13.802l2.477-105.544l2.479,140.605l2.477-112.927
	l2.479-74.802l2.477-143.938l2.479-118.578l2.477,393.393l2.48-34.276l2.479-27.366l2.477,189.002l2.479-152.285l2.477-82.064
	l2.479-169.071l2.477-102.308l2.479,315.371l2.477-75.098l2.479,81.729l2.477,213.933l2.479-165.437l2.48-77.973l2.477-169.467
	l2.479-14.788l2.477,191.217l2.479-151.013l2.477,170.136l2.479,143.056l2.477-103.707l2.479-28.886l2.48-165.849l2.479,107.928
	l2.477,58.177l2.477-190.652l2.479,184.477l2.477,101.756l2.479-49.273l2.477-23.596l2.479-170.943l2.477,191.891l2.479-5.533
	l2.48-189.797l2.479,182.209l2.477,20.626l2.479-31.705l2.477-52.228l2.479-139.854l2.477,264.374l2.477-20.157l2.479-178.356
	l2.48,139.98l2.479-23.684l2.477-2.172l2.479-83.797l2.477-114.985l2.479,275.904l2.477-9.481l2.479-138.547l2.477,148.78
	l2.479-59.823l2.477-42.667l2.48-124.028l2.479-107.441l2.477,303.783l2.479,24.678l2.477-67.58l2.479,105.019l2.477-65.191
	l2.479-35.501l2.477-170.865l2.48-137.266l2.479,309.499l2.477,15.054l2.479,30.103l2.477,100.396l2.479-93.313l2.477-39.192
	l2.479-166.127l2.477-145.979l2.479,253.351l2.477-11.427l2.48,103.837l2.479,128.094l2.477-98.985l2.479-39.367l2.477-168.976
	l2.479-126.651l2.477,199.435l2.479-50.459l2.477,168.051l2.482,77.855l2.477-73.713l2.477-46.397l2.479-149.336l2.477-61.912
	l2.479,151.72l2.477-90.954l2.479,169.141l2.477,66.072l2.479-41.938l2.477-70.572l2.482-121.896l2.477-24.448l2.479,121.401
	l2.477-73.77l2.479,148.689l2.477,28.804l2.477-19.558l2.479-82.13l2.477-111.072l2.482-4.898l2.477,94.729l2.479-36.683
	l2.477,133.153l2.479,31.531l2.477-26.362l2.479-81.644l2.477-97.557l2.479-60.192l2.477,108.693l2.479,49.104l2.48,107.138
	l2.477,70.186l2.479-86.338l2.477-119.75l2.479-96.68l2.477-26.284l2.479,111.502l2.477,65.252l2.479,86.568l2.48-6.867
	l2.477-43.979l2.479-106.104l2.477-59.441l2.479-54.346l2.477,99.719l2.479,86.277l2.477,58.19l2.479,20.482l2.477-30.681
	l2.479-106.364l2.48-56.899l2.477-59.397l2.479,48.96l2.477,113.001l2.479,40.544l2.477,54.789l2.479-21.572l2.477-109.431
	l2.479-60.866l2.48-59.219l2.477,24.078l2.479,98.27l2.477,61.299l2.479,40.683l2.477,6.333l2.479-83.225l2.477-54.285l2.479-84.01
	l2.477,65.777l2.479,6.067l2.48,44.691l2.479,64.101l2.477,17.047l2.479-47.527l2.477-9.338l2.477-91.937l2.479-44.834l2.477,54.958
	l2.479,27.437l2.48,48.374l2.479,60.965l2.477-42.376l2.479-41.061l2.477-42.906l2.479-38.303l2.477,18.897l2.479,11.888
	l2.477,48.083l2.479,37.352l2.477,1.502l2.477-24.625l2.482-46.824l2.477-20.591l2.479,4.873l2.477-22.789l2.479,39.497
	l2.477,49.799l2.479,10.05l2.477-6.593l2.48-24.521l2.479-27.522l2.477-27.779l2.479,13.238l2.477,29.851l2.479,28.504l2.477-1.702
	l2.479,4.144l2.477-26.702l2.479-0.921l2.477-17.216l2.479-9.086l2.48,26.658l2.477,20.704l2.479,8.765l2.477,4.277l2.479-16.912
	l2.477-6.102l2.479-1.49l2.477-26.085l2.48,29.221l2.479-16.639l2.477,43.845l2.479-2.637l2.477-7.388l2.479-20.839l2.477-9.62
	l2.479-5.103l2.477,13.933l2.479,0.243l2.477,11.054l2.479-2.428l2.48-13.725l2.479,12.699l2.477-17.938l2.477,24.383l2.479-11.54
	l2.477-27.792l2.479,17.76l2.477,5.967l2.479,0.361l2.48-1.052l2.479-21.677l2.477,19.936l2.479,2.119l2.477,7.991l2.479,7.771
	l2.477-21.273l2.479-0.703l2.477,4.951l2.477,1.537l2.479,5.316l2.48,0.13l2.479-9.793l2.477,19.509l2.479-15.123l2.477,17.408
	l2.479-5.073l2.477-17.056l2.479,4.156l2.477,7.249l2.48-6.163l2.479,27.588l2.477-30.072l2.479,3.34l2.477-15.957l2.479,15.614
	l2.477,20.291l2.479-24.569l2.477-2.627l2.479,0.964l2.477,5.863l2.48-4.417l2.479,4.195l2.477-10.905l2.479,10.44l2.477-25.334
	l2.479,24.027l2.477,0.369l2.479-16.361l2.477-8.561l2.48,12.044l2.479,9.772l2.477,12.438l2.479-22.94l2.477,9.546l2.479,13.799
	l2.477-21.052l2.479,5.933l2.477-19.274l2.479,15.522l2.477-3.158l2.482,8.14l2.477,3.413l2.477,8.765l2.479-23.856l2.477,8.403
	l2.479-10.119l2.477,12.321l2.479,3.792l2.477-11.366l2.482,18.962l2.477-12.474l2.479-2.08l2.477-0.859l2.479,2.332l2.477-12.035
	l2.479,1.347l2.477,6.515l2.477,11.813l2.479-7.015l2.477-4.925l2.482-7.9l2.477,4.808l2.479,4.196l2.477-14.337l2.479-4.096
	l2.477,5.063l2.479-4.842l2.477,8.165l2.479-6.954l2.48-13.92l2.477,9.668l2.479-2.875l2.477,1.477l2.479,0.852l2.477-11.982
	l2.479,13.945l2.477-3.509l2.479,1.732l2.477-16.27l2.479,6.229l2.48,6.232l2.477-1.395l2.479-4.912l2.477,9.768l2.479,3.622
	l2.477-1.52l2.479,1.62l2.477-3.535l2.479,3.761l2.48-5.182l2.477-1.528l2.479,8.435l2.477,8.577l2.479,5.052l2.477-8.73
	l2.479-2.414l2.477-10.016l2.479-1.412l2.477,0.104l2.479,7.093l2.477-5.095l2.479-1.794l2.48,2.016l2.477-0.018l2.479-0.525
	l2.477-4.864l2.479,1.129l2.477-1.294l2.482-7.688l2.477,1.251l2.479,1.381l2.477,0.234l2.479,2.923l2.477-2.845l2.479,7.036
	l2.477-1.815l2.477-8.369l2.479-1.442l2.477,2.163l2.479,8.6l2.477-1.954l2.479-5.043l2.48,1.521l2.479,5.272l2.477,0.625
	l2.479,7.87l2.477-5.702l2.479-0.539l2.48-6.102l2.477-4.821l2.479,4l2.477,1.794l2.479,9.85l2.477-7.161l2.479,3.883l2.477-1.06
	l2.479-5.095l2.477-1.325l2.479,0.374l2.477,1.676l2.479,7.293l2.477-3.019l2.48,10.832l2.479-11.128l2.477-3.683l2.479-8.144
	l2.477,6.397l2.479-7.496l2.48,10.346l2.477-3.957l2.479,4.708l2.477-8.83l2.479-4.364l2.477,4.451l2.479,2.085l2.477-0.812
	l2.479,2.745l2.477,2.229l2.479,2.228l2.477-1.606l2.479-7.822l2.477-0.687l2.48-0.156l2.479-4.664l2.477,8.994"/>
</svg>
