<svg version="1.1" baseProfile="full" width="2000" height="400" xmlns="http://www.w3.org/2000/svg">
<path d="M 0 150 L 0.052805 156.242011 L 0.580858 144.716821 L 1.108911 153.472518 L 1.636964 149.147874 L 2.165017 149.680453 L 2.693069 150.532595 L 3.221122 144.37597 L 3.749175 157.861099 L 4.277228 141.11659 L 4.805281 151.683 L 5.333333 155.879847 L 5.861386 136.898568 L 6.389439 165.296123 L 6.917492 138.53891 L 7.445545 153.87729 L 7.973597 152.876012 L 8.50165 139.540157 L 9.029703 162.292289 L 9.557756 139.135398 L 10.085809 154.94248 L 10.613861 150.916063 L 11.141914 143.672967 L 11.669967 158.606732 L 12.19802 148.700508 L 12.726073 144.610305 L 13.254125 160.545377 L 13.782178 139.199307 L 14.310231 154.047721 L 14.838284 157.200682 L 15.366337 136.834658 L 15.894389 165.040477 L 16.422442 141.223105 L 16.950495 150.319557 L 17.478548 155.517682 L 18.006601 142.011322 L 18.534653 158.436302 L 19.062706 142.309566 L 19.590759 152.386025 L 20.118812 152.577759 L 20.646865 141.734381 L 21.174917 166.190882 L 21.70297 136.323383 L 22.231023 162.249681 L 22.759076 143.076479 L 23.287129 144.141636 L 23.815182 162.185769 L 24.343234 140.903558 L 24.871287 158.329783 L 25.39934 148.231839 L 25.927393 146.591497 L 26.455446 158.116745 L 26.983498 142.629113 L 27.511551 154.793353 L 28.039604 149.126571 L 28.567657 143.672967 L 29.09571 157.072859 L 29.623762 145.547643 L 30.151815 148.125323 L 30.679868 154.452493 L 31.207921 142.5439 L 31.735974 157.072859 L 32.264026 154.601619 L 32.792079 136.728143 L 33.320132 159.544099 L 33.848185 146.101525 L 34.376238 147.592745 L 34.90429 155.794631 L 35.432343 138.389788 L 35.960396 162.80358 L 36.488449 143.736876 L 37.016502 152.662974 L 37.544554 151.981253 L 38.072607 148.082717 L 38.60066 150.234342 L 39.128713 146.953651 L 39.656766 160.545377 L 40.184818 144.716821 L 40.712871 147.102773 L 41.240924 151.107797 L 41.768977 156.34853 L 42.29703 143.502542 L 42.825083 142.714325 L 43.353135 161.482745 L 43.881188 145.462431 L 44.409241 140.072736 L 44.937294 158.052833 L 45.465347 145.52634 L 45.993399 150.660418 L 46.521452 151.661696 L 47.049505 145.995009 L 47.577558 154.367277 L 48.105611 140.605314 L 48.633663 161.887516 L 49.161716 143.310813 L 49.689769 140.860952 L 50.217822 164.529186 L 50.745875 142.437385 L 51.273927 152.939923 L 51.80198 149.552634 L 52.330033 144.610305 L 52.858086 158.095441 L 53.386139 142.160444 L 53.914191 142.906054 L 54.442244 159.181934 L 54.970297 144.503789 L 55.49835 152.151683 L 56.026403 136.429899 L 56.554455 159.203238 L 57.082508 144.333364 L 57.610561 149.829575 L 58.138614 147.315804 L 58.666667 146.719316 L 59.194719 161.333617 L 59.722772 136.259473 L 60.250825 164.38006 L 60.778878 153.429911 L 61.306931 138.751941 L 61.834983 174.648487 L 62.363036 142.94866 L 62.891089 150.362164 L 63.419142 162.121858 L 63.947195 145.249399 L 64.475248 164.678313 L 65.0033 147.294501 L 65.531353 145.952403 L 66.059406 158.883681 L 66.587459 141.05268 L 67.115512 151.491265 L 67.643564 145.909797 L 68.171617 138.53891 L 68.69967 151.810822 L 69.227723 148.125323 L 69.755776 136.536414 L 70.283828 149.744362 L 70.811881 150.511291 L 71.339934 143.800786 L 71.867987 147.76317 L 72.39604 162.228377 L 72.924092 141.05268 L 73.452145 160.651896 L 73.980198 155.965062 L 74.508251 146.186738 L 75.036304 172.58202 L 75.564356 144.418577 L 76.092409 158.521517 L 76.620462 164.742224 L 77.148515 139.092791 L 77.676568 156.625479 L 78.20462 148.380961 L 78.732673 149.083965 L 79.260726 137.708087 L 79.788779 145.59025 L 80.316832 148.807024 L 80.844884 135.49256 L 81.372937 135.662985 L 81.90099 156.881125 L 82.429043 135.89732 L 82.957096 141.649168 L 83.485149 151.23562 L 84.013201 144.312061 L 84.541254 145.441128 L 85.069307 150.17043 L 85.59736 160.247124 L 86.125413 145.568946 L 86.653465 149.914787 L 87.181518 167.852578 L 87.709571 161.56796 L 88.237624 160.268428 L 88.765677 144.84464 L 89.293729 160.50277 L 89.821782 164.870047 L 90.349835 144.03512 L 90.877888 144.738124 L 91.405941 148.977449 L 91.933993 144.290758 L 92.462046 143.545148 L 92.990099 135.812107 L 93.518152 151.938645 L 94.046205 127.993854 L 94.574257 154.601619 L 95.10231 136.046442 L 95.630363 145.292006 L 96.158416 152.130379 L 96.686469 135.364741 L 97.214521 161.077972 L 97.742574 150.106519 L 98.270627 153.536429 L 98.79868 150.021304 L 99.326733 150.681721 L 99.854785 179.569664 L 100.382838 166.744781 L 100.910891 151.086493 L 101.438944 153.493822 L 101.966997 168.683426 L 102.49505 160.587985 L 103.023102 143.481239 L 103.551155 142.011322 L 104.079208 141.350924 L 104.607261 151.23562 L 105.135314 136.195564 L 105.663366 128.611645 L 106.191419 150.830848 L 106.719472 124.670564 L 107.247525 151.512569 L 107.775578 145.419824 L 108.30363 130.422412 L 108.831683 159.011504 L 109.359736 139.902311 L 109.887789 142.032625 L 110.415842 157.605454 L 110.943894 153.493822 L 111.471947 148.10402 L 112 162.377504 L 112.528053 165.253515 L 113.056106 169.684704 L 113.584158 163.314871 L 114.112211 153.941202 L 114.640264 166.702173 L 115.168317 158.138049 L 115.69637 156.284619 L 116.224422 146.932348 L 116.752475 138.773244 L 117.280528 150.511291 L 117.808581 137.303327 L 118.336634 144.865943 L 118.864686 129.953743 L 119.392739 139.28452 L 119.920792 136.451202 L 120.448845 158.478909 L 120.976898 128.611645 L 121.50495 134.150462 L 122.033003 162.69706 L 122.561056 145.568946 L 123.089109 154.026417 L 123.617162 150.021304 L 124.145215 142.394778 L 124.673267 165.104389 L 125.20132 164.720921 L 125.729373 171.51683 L 126.257426 154.431189 L 126.785479 152.30081 L 127.313531 167.341287 L 127.841584 159.586706 L 128.369637 157.520239 L 128.89769 141.500046 L 129.425743 142.906054 L 129.953795 155.070303 L 130.481848 142.20305 L 131.009901 142.053928 L 131.537954 135.15171 L 132.066007 141.947412 L 132.594059 145.228096 L 133.122112 133.468762 L 133.650165 142.5439 L 134.178218 135.364741 L 134.706271 155.475075 L 135.234323 140.285767 L 135.762376 145.568946 L 136.290429 158.81977 L 136.818482 148.934843 L 137.346535 163.400086 L 137.874587 163.272263 L 138.40264 169.343843 L 138.930693 158.968897 L 139.458746 153.429911 L 139.986799 171.51683 L 140.514851 156.433745 L 141.042904 152.535151 L 141.570957 145.441128 L 142.09901 144.589002 L 142.627063 145.462431 L 143.155116 140.434889 L 143.683168 149.936091 L 144.211221 123.051525 L 144.739274 141.947412 L 145.267327 151.171709 L 145.79538 129.548984 L 146.323432 151.214316 L 146.851485 124.393623 L 147.379538 151.555177 L 147.907591 160.545377 L 148.435644 123.924954 L 148.963696 179.740094 L 149.491749 131.146719 L 150.019802 177.162336 L 150.547855 175.287602 L 151.075908 161.141884 L 151.60396 174.776311 L 152.132013 149.637847 L 152.660066 171.282489 L 153.188119 164.38006 L 153.716172 150.553899 L 154.244224 151.938645 L 154.772277 145.142884 L 155.30033 148.040111 L 155.828383 144.631608 L 156.356436 143.609057 L 156.884488 143.651664 L 157.412541 136.174261 L 157.940594 138.475 L 158.468647 145.292006 L 158.9967 138.432394 L 159.524752 126.886091 L 160.052805 145.696765 L 160.580858 138.304575 L 161.108911 153.685556 L 161.636964 130.230684 L 162.165017 135.939926 L 162.693069 169.769919 L 163.221122 161.205795 L 163.749175 179.399233 L 164.277228 147.294501 L 164.805281 159.373669 L 165.333333 178.951854 L 165.861386 161.504048 L 166.389439 157.158074 L 166.917492 136.855961 L 167.445545 148.317052 L 167.973597 156.1781 L 168.50165 143.182995 L 169.029703 146.804529 L 169.557756 141.840897 L 170.085809 137.38854 L 170.613861 139.518854 L 171.141914 155.56029 L 171.669967 129.847228 L 172.19802 144.461183 L 172.726073 130.294594 L 173.254125 172.155944 L 173.782178 124.308411 L 174.310231 139.96622 L 174.838284 159.927567 L 175.366337 150.127823 L 175.894389 187.324244 L 176.422442 166.190882 L 176.950495 146.6128 L 177.478548 174.755008 L 178.006601 159.011504 L 178.534653 172.262462 L 179.062706 148.593993 L 179.590759 133.149215 L 180.118812 152.322113 L 180.646865 141.414834 L 181.174917 150.660418 L 181.70297 146.655407 L 182.231023 131.657995 L 182.759076 147.635351 L 183.287129 143.140388 L 183.815182 147.635351 L 184.343234 135.407348 L 184.871287 134.107856 L 185.39934 153.003835 L 185.927393 142.586507 L 186.455446 146.208041 L 186.983498 130.997597 L 187.511551 142.288263 L 188.039604 168.960375 L 188.567657 177.545803 L 189.09571 167.021731 L 189.623762 140.008826 L 190.151815 166.979123 L 190.679868 174.691096 L 191.207921 166.659565 L 191.735974 146.591497 L 192.264026 132.872274 L 192.792079 149.701756 L 193.320132 148.892237 L 193.848185 153.110354 L 194.376238 146.527588 L 194.90429 133.170518 L 195.432343 147.656654 L 195.960396 150.660418 L 196.488449 146.250647 L 197.016502 134.874769 L 197.544554 143.545148 L 198.072607 154.154239 L 198.60066 132.850971 L 199.128713 159.970175 L 199.656766 135.449954 L 200.184818 139.731886 L 200.712871 171.580742 L 201.240924 162.356199 L 201.768977 180.3366 L 202.29703 144.354667 L 202.825083 166.105667 L 203.353135 171.900298 L 203.881188 158.883681 L 204.409241 163.378781 L 204.937294 127.567791 L 205.465347 143.928605 L 205.993399 141.265712 L 206.521452 147.294501 L 207.049505 143.758179 L 207.577558 131.338448 L 208.105611 145.86719 L 208.633663 135.769501 L 209.161716 148.785721 L 209.689769 148.50878 L 210.217822 133.639187 L 210.745875 144.290758 L 211.273927 145.505037 L 211.80198 142.94866 L 212.330033 142.650416 L 212.858086 135.577773 L 213.386139 166.893908 L 213.914191 174.584577 L 214.442244 174.627184 L 214.970297 155.006391 L 215.49835 166.297402 L 216.026403 172.219856 L 216.554455 169.769919 L 217.082508 157.946314 L 217.610561 139.199307 L 218.138614 142.053928 L 218.666667 145.483734 L 219.194719 146.080222 L 219.722772 143.523845 L 220.250825 139.135398 L 220.778878 127.141729 L 221.306931 141.031377 L 221.834983 153.898594 L 222.363036 133.149215 L 222.891089 144.908549 L 223.419142 137.835906 L 223.947195 141.287015 L 224.475248 163.76225 L 225.0033 133.31964 L 225.531353 161.73839 L 226.059406 127.589095 L 226.587459 183.148701 L 227.115512 180.826588 L 227.643564 155.411163 L 228.171617 168.321261 L 228.69967 153.493822 L 229.227723 185.236474 L 229.755776 161.056669 L 230.283828 150.937367 L 230.811881 136.536414 L 231.339934 139.476248 L 231.867987 158.20196 L 232.39604 142.075231 L 232.924092 141.308318 L 233.452145 124.947505 L 233.980198 138.219362 L 234.508251 144.695518 L 235.036304 138.837154 L 235.564356 133.788309 L 236.092409 129.037708 L 236.620462 143.864695 L 237.148515 143.140388 L 237.676568 136.98378 L 238.20462 137.963725 L 238.732673 152.002556 L 239.260726 167.596932 L 239.788779 181.721346 L 240.316832 158.841074 L 240.844884 161.397529 L 241.372937 169.919046 L 241.90099 173.093311 L 242.429043 173.072008 L 242.957096 150.298253 L 243.485149 142.479991 L 244.013201 143.332117 L 244.541254 152.343417 L 245.069307 145.781978 L 245.59736 147.08147 L 246.125413 137.985028 L 246.653465 140.243161 L 247.181518 139.540157 L 247.709571 146.484982 L 248.237624 144.354667 L 248.765677 137.473752 L 249.293729 134.470009 L 249.821782 139.178004 L 250.349835 149.339603 L 250.877888 145.909797 L 251.405941 152.833404 L 251.933993 154.473796 L 252.462046 176.821475 L 252.990099 168.449084 L 253.518152 166.23349 L 254.046205 163.165744 L 254.574257 164.38006 L 255.10231 168.853857 L 255.630363 148.721811 L 256.158416 149.233087 L 256.686469 136.706839 L 257.214521 144.482486 L 257.742574 145.355915 L 258.270627 142.053928 L 258.79868 137.196812 L 259.326733 129.911137 L 259.854785 143.076479 L 260.382838 144.226849 L 260.910891 137.452449 L 261.438944 142.011322 L 261.966997 131.253235 L 262.49505 157.669365 L 263.023102 141.649168 L 263.551155 140.775739 L 264.079208 148.91354 L 264.607261 166.936515 L 265.135314 189.092459 L 265.663366 155.56029 L 266.191419 160.374947 L 266.719472 160.204516 L 267.247525 177.737539 L 267.775578 173.71112 L 268.30363 150.78824 L 268.831683 139.156701 L 269.359736 141.691775 L 269.887789 151.555177 L 270.415842 156.199404 L 270.943894 141.904806 L 271.471947 132.23318 L 272 134.193069 L 272.528053 136.898568 L 273.056106 151.832126 L 273.584158 138.411091 L 274.112211 131.040204 L 274.640264 132.872274 L 275.168317 138.943669 L 275.69637 156.497657 L 276.224422 142.693022 L 276.752475 162.760972 L 277.280528 166.446528 L 277.808581 165.402642 L 278.336634 169.812527 L 278.864686 158.862378 L 279.392739 166.872603 L 279.920792 159.011504 L 280.448845 156.369834 L 280.976898 147.486229 L 281.50495 137.942422 L 282.033003 140.520102 L 282.561056 146.357163 L 283.089109 142.330869 L 283.617162 140.690527 L 284.145215 131.295841 L 284.673267 139.56146 L 285.20132 145.206793 L 285.729373 142.181747 L 286.257426 145.228096 L 286.785479 141.990019 L 287.313531 144.43988 L 287.841584 148.380961 L 288.369637 148.082717 L 288.89769 169.471666 L 289.425743 170.28121 L 289.953795 162.52663 L 290.481848 158.500213 L 291.009901 158.074137 L 291.537954 166.446528 L 292.066007 164.699617 L 292.594059 159.075415 L 293.122112 145.164187 L 293.650165 143.417329 L 294.178218 142.352172 L 294.706271 149.105268 L 295.234323 145.334612 L 295.762376 141.073983 L 296.290429 132.616636 L 296.818482 135.471257 L 297.346535 138.730638 L 297.874587 146.037616 L 298.40264 145.739372 L 298.930693 145.164187 L 299.458746 133.000093 L 299.986799 152.151683 L 300.514851 163.698339 L 301.042904 188.47465 L 301.570957 160.353643 L 302.09901 158.64934 L 302.627063 139.497551 L 303.155116 166.105667 L 303.683168 163.293566 L 304.211221 159.586706 L 304.739274 138.53891 L 305.267327 132.701849 L 305.79538 145.611553 L 306.323432 154.4951 L 306.851485 152.769493 L 307.379538 141.159196 L 307.907591 132.51012 L 308.435644 134.278281 L 308.963696 141.201802 L 309.491749 143.928605 L 310.019802 149.637847 L 310.547855 144.37597 L 311.075908 151.001278 L 311.60396 153.046442 L 312.132013 193.58756 L 312.660066 181.252664 L 313.188119 180.443118 L 313.716172 152.939923 L 314.244224 150.575202 L 314.772277 155.411163 L 315.30033 151.597784 L 315.828383 142.224353 L 316.356436 122.54025 L 316.884488 124.414926 L 317.412541 133.490065 L 317.940594 150.362164 L 318.468647 142.969963 L 318.9967 134.129159 L 319.524752 125.139233 L 320.052805 134.704344 L 320.580858 147.01756 L 321.108911 146.186738 L 321.636964 142.693022 L 322.165017 151.214316 L 322.693069 160.097997 L 323.221122 213.357479 L 323.749175 181.103537 L 324.277228 196.697912 L 324.805281 139.433642 L 325.333333 168.065616 L 325.861386 154.345974 L 326.389439 171.133362 L 326.917492 131.807117 L 327.445545 121.709427 L 327.973597 114.061599 L 328.50165 136.877264 L 329.029703 140.392283 L 329.557756 143.438632 L 330.085809 119.259566 L 330.613861 123.477588 L 331.141914 121.815943 L 331.669967 143.800786 L 332.19802 147.699261 L 332.726073 159.863656 L 333.254125 151.150405 L 333.782178 212.974012 L 334.310231 173.924159 L 334.838284 205.837241 L 335.366337 145.718068 L 335.894389 172.070729 L 336.422442 149.275693 L 336.950495 168.917767 L 337.478548 138.027634 L 338.006601 135.449954 L 338.534653 116.17061 L 339.062706 137.899815 L 339.590759 137.38854 L 340.118812 142.288263 L 340.646865 114.530268 L 341.174917 117.38489 L 341.70297 113.59293 L 342.231023 137.72939 L 342.759076 137.985028 L 343.287129 158.798466 L 343.815182 161.866213 L 344.343234 221.793778 L 344.871287 187.153814 L 345.39934 198.76438 L 345.927393 165.807414 L 346.455446 179.633576 L 346.983498 163.76225 L 347.511551 166.638262 L 348.039604 139.199307 L 348.567657 121.04903 L 349.09571 120.772089 L 349.623762 130.102865 L 350.151815 133.277033 L 350.679868 127.205638 L 351.207921 120.729483 L 351.735974 111.718254 L 352.264026 122.327218 L 352.792079 133.021396 L 353.320132 148.84963 L 353.848185 177.481893 L 354.376238 208.457606 L 354.90429 196.335749 L 355.432343 176.288881 L 355.960396 168.065616 L 356.488449 168.789945 L 357.016502 164.742224 L 357.544554 158.457605 L 358.072607 140.03013 L 358.60066 114.445056 L 359.128713 122.966313 L 359.656766 125.586599 L 360.184818 129.740712 L 360.712871 124.201895 L 361.240924 120.729483 L 361.768977 108.863633 L 362.29703 122.071581 L 362.825083 133.042699 L 363.353135 199.467404 L 363.881188 203.898593 L 364.409241 237.707709 L 364.937294 159.88496 L 365.465347 185.747765 L 365.993399 160.05539 L 366.521452 191.265445 L 367.049505 158.223264 L 367.577558 159.224542 L 368.105611 117.001433 L 368.633663 127.141729 L 369.161716 120.942514 L 369.689769 134.959982 L 370.217822 119.664326 L 370.745875 121.624215 L 371.273927 100.171951 L 371.80198 110.184428 L 372.330033 125.543993 L 372.858086 212.100552 L 373.386139 184.810398 L 373.914191 246.761825 L 374.442244 156.859821 L 374.970297 175.458032 L 375.49835 157.562846 L 376.026403 176.331487 L 376.554455 171.708565 L 377.082508 143.055176 L 377.610561 141.670471 L 378.138614 101.982718 L 378.666667 123.434982 L 379.194719 102.87745 L 379.722772 118.279621 L 380.250825 90.713356 L 380.778878 108.501479 L 381.306931 104.603004 L 381.834983 172.560717 L 382.363036 190.754154 L 382.891089 251.661694 L 383.419142 184.149979 L 383.947195 204.473799 L 384.475248 163.527909 L 385.0033 186.514701 L 385.531353 171.836386 L 386.059406 169.04559 L 386.587459 138.347181 L 387.115512 118.897413 L 387.643564 112.016498 L 388.171617 103.005269 L 388.69967 105.604252 L 389.227723 95.549169 L 389.755776 96.486507 L 390.283828 120.601664 L 390.811881 183.063485 L 391.339934 211.631873 L 391.867987 192.927142 L 392.39604 206.817212 L 392.924092 162.846187 L 393.452145 185.790371 L 393.980198 163.549212 L 394.508251 180.187473 L 395.036304 148.870933 L 395.564356 141.095287 L 396.092409 123.562801 L 396.620462 114.104206 L 397.148515 102.983966 L 397.676568 103.090481 L 398.20462 93.333642 L 398.732673 163.016618 L 399.260726 155.006391 L 399.788779 229.846616 L 400.316832 155.688113 L 400.844884 190.903281 L 401.372937 162.80358 L 401.90099 176.097145 L 402.429043 168.257351 L 402.957096 162.654453 L 403.485149 157.371112 L 404.013201 127.120425 L 404.541254 134.363494 L 405.069307 107.883688 L 405.59736 90.244687 L 406.125413 90.20208 L 406.653465 101.492746 L 407.181518 167.937793 L 407.709571 191.286751 L 408.237624 187.388156 L 408.765677 201.406052 L 409.293729 157.41372 L 409.821782 189.816787 L 410.349835 155.965062 L 410.877888 184.512143 L 411.405941 155.027695 L 411.933993 152.513847 L 412.462046 122.923706 L 412.990099 125.778327 L 413.518152 102.920056 L 414.046205 98.361184 L 414.574257 132.424908 L 415.10231 143.396026 L 415.630363 219.855135 L 416.158416 168.406476 L 416.686469 201.95995 L 417.214521 150.916063 L 417.742574 163.890072 L 418.270627 144.823336 L 418.79868 150.660418 L 419.326733 145.270702 L 419.854785 128.036461 L 420.382838 125.11793 L 420.910891 109.353605 L 421.438944 112.932533 L 421.966997 91.054206 L 422.49505 169.727312 L 423.023102 160.161909 L 423.551155 211.823606 L 424.079208 203.706859 L 424.607261 175.117172 L 425.135314 182.871752 L 425.663366 144.78073 L 426.191419 163.059225 L 426.719472 129.399862 L 427.247525 143.928605 L 427.775578 111.398707 L 428.30363 118.513956 L 428.831683 105.11428 L 429.359736 97.807302 L 429.887789 162.80358 L 430.415842 147.08147 L 430.943894 195.057518 L 431.471947 197.42224 L 432 172.986792 L 432.528053 188.09118 L 433.056106 151.469962 L 433.584158 163.506604 L 434.112211 126.715666 L 434.640264 143.396026 L 435.168317 117.747043 L 435.69637 121.602912 L 436.224422 117.257071 L 436.752475 109.460121 L 437.280528 158.03153 L 437.808581 179.015766 L 438.336634 171.389007 L 438.864686 198.380913 L 439.392739 165.573073 L 439.920792 178.121006 L 440.448845 157.307201 L 440.976898 154.069024 L 441.50495 144.674214 L 442.033003 118.513956 L 442.561056 135.726895 L 443.089109 100.512801 L 443.617162 123.264557 L 444.145215 153.365999 L 444.673267 142.969963 L 445.20132 196.6127 L 445.729373 172.773753 L 446.257426 162.334896 L 446.785479 164.657009 L 447.313531 141.883503 L 447.841584 150.511291 L 448.369637 124.670564 L 448.89769 139.263216 L 449.425743 110.887431 L 449.953795 125.437477 L 450.481848 126.417422 L 451.009901 159.224542 L 451.537954 166.23349 L 452.066007 214.486577 L 452.594059 188.155092 L 453.122112 195.90967 L 453.650165 179.633576 L 454.178218 148.956146 L 454.706271 141.05268 L 455.234323 113.379899 L 455.762376 118.173106 L 456.290429 85.195842 L 456.818482 116.17061 L 457.346535 101.130592 L 457.874587 136.025139 L 458.40264 161.099276 L 458.930693 212.697061 L 459.458746 200.766937 L 459.986799 217.53302 L 460.514851 197.01747 L 461.042904 170.685983 L 461.570957 160.481466 L 462.09901 124.500139 L 462.627063 119.131747 L 463.155116 79.252265 L 463.683168 100.98147 L 464.211221 87.21964 L 464.739274 127.993854 L 465.267327 151.85343 L 465.79538 203.387302 L 466.323432 192.394548 L 466.851485 219.152111 L 467.379538 197.550064 L 467.907591 179.271412 L 468.435644 167.767363 L 468.963696 132.531424 L 469.491749 125.011414 L 470.019802 81.126942 L 470.547855 105.582949 L 471.075908 87.453975 L 471.60396 127.674307 L 472.132013 143.672967 L 472.660066 207.136769 L 473.188119 192.564978 L 473.716172 216.595656 L 474.244224 191.244142 L 474.772277 172.262462 L 475.30033 161.248402 L 475.828383 128.632949 L 476.356436 127.653004 L 476.884488 89.435167 L 477.412541 101.72708 L 477.940594 97.487755 L 478.468647 139.327126 L 478.9967 151.129101 L 479.524752 208.798466 L 480.052805 198.338306 L 480.580858 205.32595 L 481.108911 198.317003 L 481.636964 166.723478 L 482.165017 151.23562 L 482.693069 120.090389 L 483.221122 112.953836 L 483.749175 84.897598 L 484.277228 97.232117 L 484.805281 99.383734 L 485.333333 137.644178 L 485.861386 147.528836 L 486.389439 204.857265 L 486.917492 194.077548 L 487.445545 205.411163 L 487.973597 195.249257 L 488.50165 168.640819 L 489.029703 157.41372 L 489.557756 123.243254 L 490.085809 115.297182 L 490.613861 96.081747 L 491.141914 94.33489 L 491.669967 102.323568 L 492.19802 144.354667 L 492.726073 153.70686 L 493.254125 209.970176 L 493.782178 199.637834 L 494.310231 203.685556 L 494.838284 193.65147 L 495.366337 164.167022 L 495.894389 152.599063 L 496.422442 109.822274 L 496.950495 103.793485 L 497.478548 88.604345 L 498.006601 88.497829 L 498.534653 109.247089 L 499.062706 141.010074 L 499.590759 160.247124 L 500.118812 213.229655 L 500.646865 203.280786 L 501.174917 221.708566 L 501.70297 195.888367 L 502.231023 180.826588 L 502.759076 154.921176 L 503.287129 119.067838 L 503.815182 104.837339 L 504.343234 87.475278 L 504.871287 86.921396 L 505.39934 99.703282 L 505.927393 117.917468 L 506.455446 152.002556 L 506.983498 187.878144 L 507.511551 203.728163 L 508.039604 219.578184 L 508.567657 201.363441 L 509.09571 195.483597 L 509.623762 161.653175 L 510.151815 142.5439 L 510.679868 114.061599 L 511.207921 102.770934 L 511.735974 92.84367 L 512.264026 107.500232 L 512.792079 109.86488 L 513.320132 140.690527 L 513.848185 156.817213 L 514.376238 189.795484 L 514.90429 194.546227 L 515.432343 195.973585 L 515.960396 192.948445 L 516.488449 178.760121 L 517.016502 157.264593 L 517.544554 135.748198 L 518.072607 119.706932 L 518.60066 114.615481 L 519.128713 113.422505 L 519.656766 114.40245 L 520.184818 124.755777 L 520.712871 139.050185 L 521.240924 156.433745 L 521.768977 172.560717 L 522.29703 178.440563 L 522.825083 184.703877 L 523.353135 179.910524 L 523.881188 172.262462 L 524.409241 161.29101 L 524.937294 143.523845 L 525.465347 127.205638 L 525.993399 124.052773 L 526.521452 124.71317 L 527.049505 126.353512 L 527.577558 135.002588 L 528.105611 138.240666 L 528.633663 157.946314 L 529.161716 156.753302 L 529.689769 178.504475 L 530.217822 170.28121 L 530.745875 178.014487 L 531.273927 166.915211 L 531.80198 165.999149 L 532.330033 153.941202 L 532.858086 138.219362 L 533.386139 134.299584 L 533.914191 121.027727 L 534.442244 127.908642 L 534.970297 128.739464 L 535.49835 135.15171 L 536.026403 143.28951 L 536.554455 149.978697 L 537.082508 157.733277 L 537.610561 166.723478 L 538.138614 169.002983 L 538.666667 176.246272 L 539.194719 168.08692 L 539.722772 169.684704 L 540.250825 154.196847 L 540.778878 153.302088 L 541.306931 138.475 L 541.834983 135.961229 L 542.363036 127.589095 L 542.891089 137.04769 L 543.419142 134.661738 L 543.947195 148.743115 L 544.475248 142.650416 L 545.0033 158.628036 L 545.531353 149.872181 L 546.059406 161.333617 L 546.587459 156.476353 L 547.115512 159.373669 L 547.643564 154.409885 L 548.171617 154.708138 L 548.69967 149.424815 L 549.227723 145.249399 L 549.755776 145.398521 L 550.283828 139.62537 L 550.811881 139.923614 L 551.339934 140.285767 L 551.867987 148.231839 L 552.39604 149.808272 L 552.924092 153.451214 L 553.452145 159.544099 L 553.980198 155.943758 L 554.508251 158.968897 L 555.036304 153.579037 L 555.564356 151.491265 L 556.092409 149.531331 L 556.620462 144.908549 L 557.148515 145.078974 L 557.676568 144.802033 L 558.20462 148.764418 L 558.732673 149.233087 L 559.260726 152.02386 L 559.788779 151.917341 L 560.316832 149.446118 L 560.844884 155.432467 L 561.372937 149.744362 L 561.90099 153.855986 L 562.429043 147.699261 L 562.957096 144.162939 L 563.485149 151.384746 L 564.013201 144.84464 L 564.541254 151.214316 L 565.069307 150.553899 L 565.59736 148.530083 L 566.125413 154.069024 L 566.653465 154.196847 L 567.181518 157.41372 L 567.709571 154.473796 L 568.237624 145.909797 L 568.765677 151.086493 L 569.293729 147.571442 L 569.821782 148.125323 L 570.349835 144.865943 L 570.877888 144.674214 L 571.405941 147.805776 L 571.933993 146.378466 L 572.462046 154.921176 L 572.990099 147.869686 L 573.518152 153.834683 L 574.046205 151.043886 L 574.574257 157.158074 L 575.10231 150.724329 L 575.630363 154.537708 L 576.158416 147.230592 L 576.686469 149.872181 L 577.214521 146.080222 L 577.742574 148.061414 L 578.270627 149.083965 L 578.79868 144.141636 L 579.326733 150.042608 L 579.854785 148.16793 L 580.382838 153.429911 L 580.910891 149.062662 L 581.438944 151.043886 L 581.966997 152.386025 L 582.49505 147.912292 L 583.023102 154.94248 L 583.551155 138.475 L 584.079208 152.109075 L 584.607261 144.759427 L 585.135314 150.916063 L 585.663366 138.666728 L 586.191419 150.532595 L 586.719472 148.125323 L 587.247525 150.639114 L 587.775578 153.664252 L 588.30363 154.708138 L 588.831683 157.243289 L 589.359736 155.262037 L 589.887789 160.928846 L 590.415842 149.126571 L 590.943894 153.792075 L 591.471947 148.125323 L 592 147.486229 L 592.528053 147.230592 L 593.056106 146.548891 L 593.584158 145.718068 L 594.112211 148.466174 L 594.640264 150.681721 L 595.168317 155.794631 L 595.69637 154.090328 L 596.224422 146.6128 L 596.752475 149.872181 L 597.280528 146.250647 L 597.808581 156.156796 L 598.336634 145.015065 L 598.864686 154.196847 L 599.392739 147.699261 L 599.920792 150.575202 L 600.448845 148.338355 L 600.976898 147.42232 L 601.50495 146.122828 L 602.033003 149.318299 L 602.561056 149.339603 L 603.089109 147.635351 L 603.617162 157.541542 L 604.145215 150.17043 L 604.673267 152.748189 L 605.20132 153.919898 L 605.729373 149.872181 L 606.257426 148.807024 L 606.785479 147.486229 L 607.313531 147.464926 L 607.841584 157.818492 L 608.369637 150.106519 L 608.89769 150 L 609.425743 150.596506 L 609.953795 147.592745 L 610.481848 144.865943 L 611.009901 142.139141 L 611.537954 142.075231 L 612.066007 145.739372 L 612.594059 147.01756 L 613.122112 147.592745 L 613.650165 146.314556 L 614.178218 156.135492 L 614.706271 150.937367 L 615.234323 156.604176 L 615.762376 152.726885 L 616.290429 155.070303 L 616.818482 160.609288 L 617.346535 151.107797 L 617.874587 148.444871 L 618.40264 145.18549 L 618.930693 147.145379 L 619.458746 142.927357 L 619.986799 147.443623 L 620.514851 148.764418 L 621.042904 149.723059 L 621.570957 152.045164 L 622.09901 151.896038 L 622.627063 156.263315 L 623.155116 153.642948 L 623.683168 155.688113 L 624.211221 154.772049 L 624.739274 147.251895 L 625.267327 150.255646 L 625.79538 142.629113 L 626.323432 139.56146 L 626.851485 138.027634 L 627.379538 140.797043 L 627.907591 144.141636 L 628.435644 150.44738 L 628.963696 153.216873 L 629.491749 155.347252 L 630.019802 155.709416 L 630.547855 157.711973 L 631.075908 151.959949 L 631.60396 157.264593 L 632.132013 149.616543 L 632.660066 150.17043 L 633.188119 141.436137 L 633.716172 143.928605 L 634.244224 143.204298 L 634.772277 144.503789 L 635.30033 150.596506 L 635.828383 151.320835 L 636.356436 156.710695 L 636.884488 162.185769 L 637.412541 155.965062 L 637.940594 164.060503 L 638.468647 146.208041 L 638.9967 150.681721 L 639.524752 145.419824 L 640.052805 144.482486 L 640.580858 144.141636 L 641.108911 144.503789 L 641.636964 141.755684 L 642.165017 146.421072 L 642.693069 150.873455 L 643.221122 153.493822 L 643.749175 153.493822 L 644.277228 159.075415 L 644.805281 156.987644 L 645.333333 148.615296 L 645.861386 154.388581 L 646.389439 141.990019 L 646.917492 143.502542 L 647.445545 145.632856 L 647.973597 149.25439 L 648.50165 151.384746 L 649.029703 146.27195 L 649.557756 150.489987 L 650.085809 154.516404 L 650.613861 160.140605 L 651.141914 148.657902 L 651.669967 158.713251 L 652.19802 151.512569 L 652.726073 148.679205 L 653.254125 149.382209 L 653.782178 146.847135 L 654.310231 142.032625 L 654.838284 141.500046 L 655.366337 141.478743 L 655.894389 149.829575 L 656.422442 155.048999 L 656.950495 152.386025 L 657.478548 156.774606 L 658.006601 160.715807 L 658.534653 155.752024 L 659.062706 160.630592 L 659.590759 145.100277 L 660.118812 157.13677 L 660.646865 144.929852 L 661.174917 145.845887 L 661.70297 148.189233 L 662.231023 142.437385 L 662.759076 149.083965 L 663.287129 143.885998 L 663.815182 153.941202 L 664.343234 154.921176 L 664.871287 149.190481 L 665.39934 153.429911 L 665.927393 157.775884 L 666.455446 155.453771 L 666.983498 145.568946 L 667.511551 146.144131 L 668.039604 141.926109 L 668.567657 150.191734 L 669.09571 137.282024 L 669.623762 142.650416 L 670.151815 149.957394 L 670.679868 146.208041 L 671.207921 150.78824 L 671.735974 158.138049 L 672.264026 160.779719 L 672.792079 157.094163 L 673.320132 149.382209 L 673.848185 155.965062 L 674.376238 148.50878 L 674.90429 153.025138 L 675.432343 146.591497 L 675.960396 141.606562 L 676.488449 151.533873 L 677.016502 147.379714 L 677.544554 149.041359 L 678.072607 152.130379 L 678.60066 150.021304 L 679.128713 148.679205 L 679.656766 147.166682 L 680.184818 154.069024 L 680.712871 158.37239 L 681.240924 147.933595 L 681.768977 150.149127 L 682.29703 152.258202 L 682.825083 155.752024 L 683.353135 141.926109 L 683.881188 142.778235 L 684.409241 143.822089 L 684.937294 147.379714 L 685.465347 151.06519 L 685.993399 150.489987 L 686.521452 146.740619 L 687.049505 149.510028 L 687.577558 154.772049 L 688.105611 149.531331 L 688.633663 150.979974 L 689.161716 151.06519 L 689.689769 153.557733 L 690.217822 155.879847 L 690.745875 141.073983 L 691.273927 152.47124 L 691.80198 140.498799 L 692.330033 145.483734 L 692.858086 149.446118 L 693.386139 148.743115 L 693.914191 159.373669 L 694.442244 147.933595 L 694.970297 153.451214 L 695.49835 148.189233 L 696.026403 148.892237 L 696.554455 143.630361 L 697.082508 150.660418 L 697.610561 152.769493 L 698.138614 149.126571 L 698.666667 148.657902 L 699.194719 144.525092 L 699.722772 149.786969 L 700.250825 163.187048 L 700.778878 153.621645 L 701.306931 155.475075 L 701.834983 141.776987 L 702.363036 158.159352 L 702.891089 152.428632 L 703.419142 146.719316 L 703.947195 151.278228 L 704.475248 142.906054 L 705.0033 149.360906 L 705.531353 148.743115 L 706.059406 153.08905 L 706.587459 145.803281 L 707.115512 161.397529 L 707.643564 148.189233 L 708.171617 155.368556 L 708.69967 150.276949 L 709.227723 147.464926 L 709.755776 153.983809 L 710.283828 136.536414 L 710.811881 145.952403 L 711.339934 144.865943 L 711.867987 147.869686 L 712.39604 150.234342 L 712.924092 144.077727 L 713.452145 146.506285 L 713.980198 151.981253 L 714.508251 159.544099 L 715.036304 151.320835 L 715.564356 155.538986 L 716.092409 149.020055 L 716.620462 151.469962 L 717.148515 151.619088 L 717.676568 154.814657 L 718.20462 139.092791 L 718.732673 144.333364 L 719.260726 149.339603 L 719.788779 153.749467 L 720.316832 145.59025 L 720.844884 151.832126 L 721.372937 160.374947 L 721.90099 163.421389 L 722.429043 147.102773 L 722.957096 154.32467 L 723.485149 138.411091 L 724.013201 155.752024 L 724.541254 145.12158 L 725.069307 147.82708 L 725.59736 151.576481 L 726.125413 150.61781 L 726.653465 149.978697 L 727.181518 147.614048 L 727.709571 147.35841 L 728.237624 153.08905 L 728.765677 151.107797 L 729.293729 158.542821 L 729.821782 147.01756 L 730.349835 150.213038 L 730.877888 147.145379 L 731.405941 156.156796 L 731.933993 150.234342 L 732.462046 157.41372 L 732.990099 147.507532 L 733.518152 153.962505 L 734.046205 141.8622 L 734.574257 154.772049 L 735.10231 150.44738 L 735.630363 154.409885 L 736.158416 155.240733 L 736.686469 149.936091 L 737.214521 148.380961 L 737.742574 151.619088 L 738.270627 154.282062 L 738.79868 147.571442 L 739.326733 141.8622 L 739.854785 145.52634 L 740.382838 138.112847 L 740.910891 155.347252 L 741.438944 147.677958 L 741.966997 152.535151 L 742.49505 153.451214 L 743.023102 145.952403 L 743.551155 158.542821 L 744.079208 150.958671 L 744.607261 149.169177 L 745.135314 147.038863 L 745.663366 145.505037 L 746.191419 152.556455 L 746.719472 145.18549 L 747.247525 151.704303 L 747.775578 153.983809 L 748.30363 136.451202 L 748.831683 151.768215 L 749.359736 158.138049 L 749.887789 152.428632 L 750.415842 156.391138 L 750.943894 141.585259 L 751.471947 152.364721 L 752 153.579037 L 752.528053 137.282024 L 753.056106 158.968897 L 753.584158 145.355915 L 754.112211 153.813379 L 754.640264 140.71183 L 755.168317 146.719316 L 755.69637 153.898594 L 756.224422 147.677958 L 756.752475 150.937367 L 757.280528 149.957394 L 757.808581 157.818492 L 758.336634 159.139327 L 758.864686 150.639114 L 759.392739 157.690669 L 759.920792 156.604176 L 760.448845 153.557733 L 760.976898 151.981253 L 761.50495 157.733277 L 762.033003 148.146627 L 762.561056 143.28951 L 763.089109 148.487477 L 763.617162 149.765665 L 764.145215 149.424815 L 764.673267 146.6128 L 765.20132 157.456327 L 765.729373 145.483734 L 766.257426 148.274445 L 766.785479 151.256924 L 767.313531 145.995009 L 767.841584 151.384746 L 768.369637 144.610305 L 768.89769 155.602897 L 769.425743 152.002556 L 769.953795 144.652911 L 770.481848 151.576481 L 771.009901 140.690527 L 771.537954 156.945036 L 772.066007 147.614048 L 772.594059 151.533873 L 773.122112 151.981253 L 773.650165 148.934843 L 774.178218 150.340861 L 774.706271 160.992757 L 775.234323 146.484982 L 775.762376 156.412441 L 776.290429 150.78824 L 776.818482 148.743115 L 777.346535 149.296996 L 777.874587 150.681721 L 778.40264 149.936091 L 778.930693 149.59524 L 779.458746 152.577759 L 779.986799 151.086493 L 780.514851 148.444871 L 781.042904 148.359658 L 781.570957 149.169177 L 782.09901 147.741867 L 782.627063 139.881008 L 783.155116 153.25948 L 783.683168 147.550139 L 784.211221 148.487477 L 784.739274 147.166682 L 785.267327 150.255646 L 785.79538 156.028973 L 786.323432 152.726885 L 786.851485 156.455049 L 787.379538 150.724329 L 787.907591 158.03153 L 788.435644 150.213038 L 788.963696 149.914787 L 789.491749 151.06519 L 790.019802 149.744362 L 790.547855 153.898594 L 791.075908 144.865943 L 791.60396 152.087772 L 792.132013 145.632856 L 792.660066 150.766937 L 793.188119 148.018808 L 793.716172 149.083965 L 794.244224 155.752024 L 794.772277 148.977449 L 795.30033 149.893484 L 795.828383 148.189233 L 796.356436 152.748189 L 796.884488 145.952403 L 797.412541 150.340861 L 797.940594 149.233087 L 798.468647 148.721811 L 798.9967 155.389859 L 799.524752 146.548891 L 800.052805 155.688113 L 800.580858 152.748189 L 801.108911 151.789519 L 801.636964 148.892237 L 802.165017 153.70686 L 802.693069 151.022582 L 803.221122 145.078974 L 803.749175 152.833404 L 804.277228 145.611553 L 804.805281 150 L 805.333333 146.974954 L 805.861386 149.637847 L 806.389439 148.721811 L 806.917492 148.231839 L 807.445545 152.172987 L 807.973597 147.677958 L 808.50165 151.661696 L 809.029703 148.402264 L 809.557756 149.744362 L 810.085809 147.464926 L 810.613861 150.042608 L 811.141914 149.65915 L 811.669967 146.953651 L 812.19802 150.830848 L 812.726073 150.852152 L 813.254125 149.403512 L 813.782178 150.78824 L 814.310231 151.043886 L 814.838284 151.810822 L 815.366337 151.959949 L 815.894389 149.446118 L 816.422442 153.08905 L 816.950495 147.741867 L 817.478548 152.258202 L 818.006601 149.275693 L 818.534653 149.062662 L 819.062706 150.660418 L 819.590759 147.379714 L 820.118812 153.749467 L 820.646865 147.656654 L 821.174917 151.427354 L 821.70297 148.679205 L 822.231023 150.298253 L 822.759076 150.575202 L 823.287129 146.889741 L 823.815182 151.001278 L 824.343234 145.739372 L 824.871287 150.745633 L 825.39934 146.463678 L 825.927393 147.528836 L 826.455446 145.568946 L 826.983498 147.486229 L 827.511551 151.981253 L 828.039604 152.535151 L 828.567657 160.566681 L 829.09571 161.269707 L 829.623762 167.511717 L 830.151815 163.740947 L 830.679868 164.252238 L 831.207921 155.28334 L 831.735974 148.338355 L 832.264026 138.198059 L 832.792079 123.243254 L 833.320132 117.512708 L 833.848185 108.480176 L 834.376238 112.612986 L 834.90429 129.122921 L 835.432343 159.416276 L 835.960396 182.509588 L 836.488449 210.289733 L 837.016502 198.785683 L 837.544554 201.938647 L 838.072607 165.296123 L 838.60066 144.120333 L 839.128713 130.166775 L 839.656766 116.767098 L 840.184818 129.634196 L 840.712871 127.226941 L 841.240924 131.125416 L 841.768977 126.758272 L 842.29703 119.579113 L 842.825083 103.686969 L 843.353135 158.116745 L 843.881188 136.067745 L 844.409241 200.596507 L 844.937294 204.878569 L 845.465347 200.979974 L 845.993399 209.799745 L 846.521452 146.421072 L 847.049505 159.629314 L 847.577558 96.550417 L 848.105611 121.624215 L 848.633663 132.531424 L 849.161716 135.854714 L 849.689769 182.424373 L 850.217822 130.038956 L 850.745875 153.493822 L 851.273927 91.565481 L 851.80198 86.282302 L 852.330033 97.743393 L 852.858086 132.701849 L 853.386139 184.554752 L 853.914191 232.552193 L 854.442244 223.519385 L 854.970297 238.943333 L 855.49835 172.816362 L 856.026403 136.408595 L 856.554455 108.735814 L 857.082508 86.218393 L 857.610561 136.706839 L 858.138614 140.626617 L 858.666667 197.42224 L 859.194719 178.99446 L 859.722772 156.34853 L 860.250825 123.498891 L 860.778878 74.501665 L 861.306931 69.005454 L 861.834983 79.294872 L 862.363036 172.241159 L 862.891089 197.784404 L 863.419142 278.248826 L 863.947195 221.325099 L 864.475248 232.786538 L 865.0033 159.26715 L 865.531353 99.255916 L 866.059406 109.396211 L 866.587459 75.928975 L 867.115512 169.620793 L 867.643564 156.625479 L 868.171617 211.631873 L 868.69967 177.098424 L 869.227723 134.129159 L 869.755776 122.8811 L 870.283828 61.591961 L 870.811881 81.169548 L 871.339934 56.649632 L 871.867987 225.159779 L 872.39604 194.418409 L 872.924092 276.097146 L 873.452145 261.908817 L 873.980198 155.453771 L 874.508251 183.93694 L 875.036304 54.348892 L 875.564356 120.601664 L 876.092409 87.96525 L 876.620462 135.343438 L 877.148515 223.199832 L 877.676568 163.421389 L 878.20462 224.030676 L 878.732673 122.731978 L 879.260726 127.503882 L 879.788779 95.42135 L 880.316832 69.04806 L 880.844884 110.823522 L 881.372937 54.60453 L 881.90099 254.388579 L 882.429043 164.401364 L 882.957096 243.459734 L 883.485149 238.474653 L 884.013201 110.908734 L 884.541254 202.726884 L 885.069307 62.40148 L 885.59736 168.917767 L 886.125413 138.81585 L 886.653465 142.927357 L 887.181518 234.235193 L 887.709571 125.096627 L 888.237624 222.667233 L 888.765677 133.596581 L 889.293729 143.35342 L 889.821782 144.652911 L 890.349835 72.137016 L 890.877888 151.512569 L 891.405941 61.65587 L 891.933993 97.338633 L 892.462046 226.991906 L 892.990099 135.364741 L 893.518152 273.412867 L 894.046205 203.919896 L 894.574257 160.779719 L 895.10231 194.354494 L 895.630363 78.165805 L 896.158416 178.184918 L 896.686469 102.110537 L 897.214521 148.551386 L 897.742574 201.107798 L 898.270627 118.684381 L 898.79868 208.074139 L 899.326733 132.808364 L 899.854785 147.592745 L 900.382838 140.541405 L 900.910891 93.291036 L 901.438944 148.551386 L 901.966997 75.779853 L 902.49505 117.832256 L 903.023102 98.595518 L 903.551155 217.831274 L 904.079208 182.765234 L 904.607261 237.345545 L 905.135314 189.518535 L 905.663366 149.744362 L 906.191419 143.587754 L 906.719472 80.125694 L 907.247525 144.205545 L 907.775578 112.442561 L 908.30363 148.934843 L 908.831683 175.308905 L 909.359736 136.23817 L 909.887789 170.664678 L 910.415842 130.827172 L 910.943894 155.624201 L 911.471947 139.689279 L 912 113.912477 L 912.528053 133.703096 L 913.056106 105.433827 L 913.584158 104.496489 L 914.112211 80.146997 L 914.640264 232.23264 L 915.168317 172.858968 L 915.69637 240.732849 L 916.224422 193.012357 L 916.752475 130.614141 L 917.280528 145.739372 L 917.808581 69.900186 L 918.336634 143.928605 L 918.864686 133.767006 L 919.392739 133.25573 L 919.920792 198.551343 L 920.448845 145.973706 L 920.976898 167.043034 L 921.50495 158.585428 L 922.033003 143.566451 L 922.561056 183.127397 L 923.089109 119.621719 L 923.617162 136.770749 L 924.145215 117.938771 L 924.673267 77.697136 L 925.20132 104.006516 L 925.729373 139.391035 L 926.257426 221.13336 L 926.785479 190.498508 L 927.313531 233.659992 L 927.841584 127.610398 L 928.369637 120.963817 L 928.89769 154.580315 L 929.425743 80.487848 L 929.953795 163.719642 L 930.481848 165.296123 L 931.009901 174.499362 L 931.537954 197.890925 L 932.066007 142.479991 L 932.594059 162.036643 L 933.122112 153.983809 L 933.650165 136.706839 L 934.178218 148.700508 L 934.706271 109.673152 L 935.234323 98.148152 L 935.762376 115.552819 L 936.290429 93.52537 L 936.818482 81.233457 L 937.346535 270.132079 L 937.874587 179.463145 L 938.40264 228.078398 L 938.930693 206.859823 L 939.458746 88.242191 L 939.986799 146.229344 L 940.514851 82.447737 L 941.042904 130.74196 L 941.570957 200.61781 L 942.09901 138.837154 L 942.627063 195.014912 L 943.155116 168.385173 L 943.683168 115.211969 L 944.211221 167.170856 L 944.739274 155.56029 L 945.267327 192.650193 L 945.79538 160.204516 L 946.323432 125.054021 L 946.851485 123.62671 L 947.379538 107.265897 L 947.907591 124.564048 L 948.435644 89.967746 L 948.963696 153.728164 L 949.491749 237.942054 L 950.019802 169.343843 L 950.547855 231.146144 L 951.075908 131.76451 L 951.60396 96.273476 L 952.132013 163.698339 L 952.660066 109.694455 L 953.188119 157.435023 L 953.716172 172.368983 L 954.244224 139.135398 L 954.772277 137.282024 L 955.30033 138.304575 L 955.828383 128.206886 L 956.356436 154.963784 L 956.884488 194.844482 L 957.412541 156.753302 L 957.940594 147.187985 L 958.468647 124.947505 L 958.9967 107.074169 L 959.524752 139.391035 L 960.052805 110.695703 L 960.580858 84.343716 L 961.108911 198.551343 L 961.636964 229.079677 L 962.165017 175.095868 L 962.693069 215.892631 L 963.221122 136.493808 L 963.749175 90.223383 L 964.277228 182.466979 L 964.805281 144.056423 L 965.333333 131.82842 L 965.861386 184.703877 L 966.389439 139.007579 L 966.917492 135.854714 L 967.445545 148.487477 L 967.973597 128.995102 L 968.50165 163.996592 L 969.029703 188.09118 L 969.557756 134.363494 L 970.085809 127.780823 L 970.613861 129.378558 L 971.141914 115.914973 L 971.669967 138.602819 L 972.19802 129.18683 L 972.726073 79.82745 L 973.254125 236.450787 L 973.782178 241.606309 L 974.310231 163.740947 L 974.838284 207.115466 L 975.366337 146.868438 L 975.894389 76.525463 L 976.422442 153.429911 L 976.950495 165.360035 L 977.478548 123.179344 L 978.006601 176.73626 L 978.534653 178.6536 L 979.062706 117.491405 L 979.590759 158.904985 L 980.118812 160.587985 L 980.646865 150.404772 L 981.174917 202.641671 L 981.70297 164.550491 L 982.231023 105.178189 L 982.759076 128.654252 L 983.287129 129.676802 L 983.815182 118.769594 L 984.343234 136.23817 L 984.871287 97.956424 L 985.39934 104.113032 L 985.927393 239.582448 L 986.455446 191.009799 L 986.983498 149.829575 L 987.511551 194.375797 L 988.039604 122.433734 L 988.567657 103.729575 L 989.09571 169.897742 L 989.623762 160.779719 L 990.151815 137.282024 L 990.679868 194.631445 L 991.207921 161.951428 L 991.735974 112.293439 L 992.264026 156.199404 L 992.792079 158.287175 L 993.320132 135.726895 L 993.848185 173.860247 L 994.376238 155.28334 L 994.90429 104.624307 L 995.432343 142.969963 L 995.960396 155.943758 L 996.488449 108.37366 L 997.016502 104.603004 L 997.544554 106.733319 L 998.072607 198.040052 L 998.60066 230.507029 L 999.128713 189.518535 L 999.656766 186.749041 L 1000.184818 158.265871 L 1000.712871 109.673152 L 1001.240924 121.539002 L 1001.768977 166.744781 L 1002.29703 163.293566 L 1002.825083 152.343417 L 1003.353135 181.806561 L 1003.881188 158.010226 L 1004.409241 118.918716 L 1004.937294 146.804529 L 1005.465347 159.416276 L 1005.993399 152.599063 L 1006.521452 144.248152 L 1007.049505 134.917375 L 1007.577558 128.206886 L 1008.105611 140.200555 L 1008.633663 144.162939 L 1009.161716 107.862385 L 1009.689769 92.03415 L 1010.217822 156.561568 L 1010.745875 217.319983 L 1011.273927 189.795484 L 1011.80198 168.023008 L 1012.330033 165.913933 L 1012.858086 129.421165 L 1013.386139 111.931285 L 1013.914191 153.344695 L 1014.442244 170.749894 L 1014.970297 145.015065 L 1015.49835 162.888795 L 1016.026403 177.86536 L 1016.554455 144.013817 L 1017.082508 131.82842 L 1017.610561 168.470388 L 1018.138614 175.990626 L 1018.666667 147.060166 L 1019.194719 138.901063 L 1019.722772 133.809612 L 1020.250825 120.537755 L 1020.778878 127.546488 L 1021.306931 128.824677 L 1021.834983 108.352357 L 1022.363036 91.799816 L 1022.891089 194.354494 L 1023.419142 239.774176 L 1023.947195 182.658713 L 1024.475248 162.97401 L 1025.0033 161.376225 L 1025.531353 123.413679 L 1026.059406 102.259659 L 1026.587459 155.453771 L 1027.115512 176.73626 L 1027.643564 146.783226 L 1028.171617 162.164466 L 1028.69967 175.820196 L 1029.227723 147.230592 L 1029.755776 133.31964 L 1030.283828 161.631871 L 1030.811881 167.618237 L 1031.339934 133.767006 L 1031.867987 129.847228 L 1032.39604 152.64167 L 1032.924092 142.053928 L 1033.452145 124.265804 L 1033.980198 121.475093 L 1034.508251 107.777172 L 1035.036304 109.204483 L 1035.564356 185.939498 L 1036.092409 225.287603 L 1036.620462 191.265445 L 1037.148515 161.994036 L 1037.676568 166.446528 L 1038.20462 143.055176 L 1038.732673 110.035306 L 1039.260726 128.377311 L 1039.788779 149.062662 L 1040.316832 149.531331 L 1040.844884 159.671922 L 1041.372937 171.51683 L 1041.90099 165.509161 L 1042.429043 159.671922 L 1042.957096 158.628036 L 1043.485149 149.062662 L 1044.013201 135.513863 L 1044.541254 130.67805 L 1045.069307 142.714325 L 1045.59736 143.843392 L 1046.125413 133.958734 L 1046.653465 112.719501 L 1047.181518 107.585444 L 1047.709571 126.95 L 1048.237624 180.528334 L 1048.765677 212.292291 L 1049.293729 188.453344 L 1049.821782 173.13592 L 1050.349835 177.907969 L 1050.877888 146.655407 L 1051.405941 122.902403 L 1051.933993 124.585352 L 1052.462046 130.3372 L 1052.990099 141.606562 L 1053.518152 156.731998 L 1054.046205 171.367704 L 1054.574257 173.966766 L 1055.10231 168.768642 L 1055.630363 154.622923 L 1056.158416 138.87976 L 1056.686469 128.760767 L 1057.214521 134.725647 L 1057.742574 139.774492 L 1058.270627 140.669224 L 1058.79868 131.551479 L 1059.326733 120.878605 L 1059.854785 115.808457 L 1060.382838 126.971303 L 1060.910891 178.951854 L 1061.438944 209.586709 L 1061.966997 190.264168 L 1062.49505 174.882829 L 1063.023102 175.287602 L 1063.551155 159.522795 L 1064.079208 128.356008 L 1064.607261 111.739557 L 1065.135314 125.416174 L 1065.663366 142.820841 L 1066.191419 154.622923 L 1066.719472 170.004261 L 1067.247525 177.929272 L 1067.775578 173.54069 L 1068.30363 156.945036 L 1068.831683 135.790804 L 1069.359736 132.147967 L 1069.887789 133.000093 L 1070.415842 131.615388 L 1070.943894 129.911137 L 1071.471947 127.184335 L 1072 120.601664 L 1072.528053 114.658087 L 1073.056106 118.535259 L 1073.584158 167.575629 L 1074.112211 197.954834 L 1074.640264 194.759269 L 1075.168317 177.588412 L 1075.69637 172.603323 L 1076.224422 167.511717 L 1076.752475 144.43988 L 1077.280528 122.689372 L 1077.808581 119.89866 L 1078.336634 135.535167 L 1078.864686 154.793353 L 1079.392739 167.234769 L 1079.920792 177.098424 L 1080.448845 179.846612 L 1080.976898 170.643375 L 1081.50495 154.793353 L 1082.033003 137.111599 L 1082.561056 137.473752 L 1083.089109 135.215619 L 1083.617162 131.551479 L 1084.145215 127.567791 L 1084.673267 128.270795 L 1085.20132 125.650509 L 1085.729373 127.951248 L 1086.257426 140.71183 L 1086.785479 166.40392 L 1087.313531 189.646357 L 1087.841584 189.326802 L 1088.369637 173.817641 L 1088.89769 173.434171 L 1089.425743 163.059225 L 1089.953795 135.833411 L 1090.481848 120.516451 L 1091.009901 125.437477 L 1091.537954 140.115342 L 1092.066007 157.818492 L 1092.594059 165.146997 L 1093.122112 169.450363 L 1093.650165 170.941628 L 1094.178218 158.628036 L 1094.706271 142.181747 L 1095.234323 137.750693 L 1095.762376 135.705592 L 1096.290429 130.933688 L 1096.818482 125.203143 L 1097.346535 124.627958 L 1097.874587 127.69561 L 1098.40264 127.376063 L 1098.930693 131.679298 L 1099.458746 141.478743 L 1099.986799 169.216021 L 1100.514851 189.667662 L 1101.042904 189.475926 L 1101.570957 179.463145 L 1102.09901 171.303792 L 1102.627063 157.839796 L 1103.155116 142.629113 L 1103.683168 130.827172 L 1104.211221 129.93244 L 1104.739274 144.184242 L 1105.267327 152.556455 L 1105.79538 165.423946 L 1106.323432 172.880274 L 1106.851485 171.836386 L 1107.379538 162.036643 L 1107.907591 148.934843 L 1108.435644 147.038863 L 1108.963696 142.778235 L 1109.491749 130.081562 L 1110.019802 129.59159 L 1110.547855 128.995102 L 1111.075908 128.973799 L 1111.60396 128.84598 L 1112.132013 131.381054 L 1112.660066 139.646673 L 1113.188119 159.181934 L 1113.716172 180.72007 L 1114.244224 178.461866 L 1114.772277 170.600768 L 1115.30033 164.167022 L 1115.828383 159.011504 L 1116.356436 143.502542 L 1116.884488 136.493808 L 1117.412541 139.923614 L 1117.940594 145.952403 L 1118.468647 152.322113 L 1118.9967 157.775884 L 1119.524752 166.808693 L 1120.052805 164.081807 L 1120.580858 154.132936 L 1121.108911 147.656654 L 1121.636964 143.822089 L 1122.165017 137.72939 L 1122.693069 134.384797 L 1123.221122 131.892329 L 1123.749175 128.398614 L 1124.277228 127.141729 L 1124.805281 128.10037 L 1125.333333 138.006331 L 1125.861386 146.250647 L 1126.389439 160.353643 L 1126.917492 179.164891 L 1127.445545 181.29527 L 1127.973597 176.544526 L 1128.50165 168.662122 L 1129.029703 162.80358 L 1129.557756 150.532595 L 1130.085809 144.716821 L 1130.613861 145.739372 L 1131.141914 144.674214 L 1131.669967 148.274445 L 1132.19802 154.835961 L 1132.726073 152.258202 L 1133.254125 153.302088 L 1133.782178 153.813379 L 1134.310231 146.761922 L 1134.838284 146.208041 L 1135.366337 146.357163 L 1135.894389 140.37098 L 1136.422442 137.985028 L 1136.950495 137.750693 L 1137.478548 135.641682 L 1138.006601 137.175508 L 1138.534653 138.411091 L 1139.062706 145.781978 L 1139.590759 157.988922 L 1140.118812 165.786111 L 1140.646865 168.129528 L 1141.174917 162.569237 L 1141.70297 159.586706 L 1142.231023 157.158074 L 1142.759076 152.599063 L 1143.287129 149.105268 L 1143.815182 149.403512 L 1144.343234 150.916063 L 1144.871287 152.236898 L 1145.39934 151.85343 L 1145.927393 152.364721 L 1146.455446 153.302088 L 1146.983498 147.01756 L 1147.511551 143.672967 L 1148.039604 140.328374 L 1148.567657 137.708087 L 1149.09571 139.497551 L 1149.623762 136.728143 L 1150.151815 140.839649 L 1150.679868 145.12158 L 1151.207921 147.145379 L 1151.735974 156.028973 L 1152.264026 161.73839 L 1152.792079 166.126971 L 1153.320132 168.683426 L 1153.848185 166.553047 L 1154.376238 159.522795 L 1154.90429 155.602897 L 1155.432343 149.446118 L 1155.960396 144.823336 L 1156.488449 147.145379 L 1157.016502 147.08147 L 1157.544554 147.443623 L 1158.072607 147.592745 L 1158.60066 148.338355 L 1159.128713 150.063911 L 1159.656766 144.802033 L 1160.184818 143.651664 L 1160.712871 142.373475 L 1161.240924 138.219362 L 1161.768977 143.736876 L 1162.29703 143.587754 L 1162.825083 143.843392 L 1163.353135 143.587754 L 1163.881188 145.86719 L 1164.409241 151.043886 L 1164.937294 150.553899 L 1165.465347 157.541542 L 1165.993399 164.848744 L 1166.521452 163.016618 L 1167.049505 164.848744 L 1167.577558 164.933959 L 1168.105611 159.288453 L 1168.633663 156.284619 L 1169.161716 153.046442 L 1169.689769 151.214316 L 1170.217822 147.635351 L 1170.745875 142.927357 L 1171.273927 139.902311 L 1171.80198 142.139141 L 1172.330033 140.754436 L 1172.858086 139.050185 L 1173.386139 140.37098 L 1173.914191 143.758179 L 1174.442244 144.84464 L 1174.970297 142.671719 L 1175.49835 140.626617 L 1176.026403 142.458688 L 1176.554455 147.933595 L 1177.082508 148.402264 L 1177.610561 151.746911 L 1178.138614 161.333617 L 1178.666667 163.463997 L 1179.194719 162.97401 L 1179.722772 160.950149 L 1180.250825 157.477631 L 1180.778878 155.624201 L 1181.306931 155.048999 L 1181.834983 153.536429 L 1182.363036 149.829575 L 1182.891089 153.365999 L 1183.419142 149.914787 L 1183.947195 148.572689 L 1184.475248 150.852152 L 1185.0033 145.249399 L 1185.531353 144.162939 L 1186.059406 143.672967 L 1186.587459 141.500046 L 1187.115512 142.565203 L 1187.643564 139.944917 L 1188.171617 138.048937 L 1188.69967 137.835906 L 1189.227723 143.459935 L 1189.755776 148.444871 L 1190.283828 149.488725 L 1190.811881 156.774606 L 1191.339934 160.609288 L 1191.867987 162.143162 L 1192.39604 161.397529 L 1192.924092 160.140605 L 1193.452145 160.545377 L 1193.980198 159.416276 L 1194.508251 159.139327 L 1195.036304 158.287175 L 1195.564356 154.111632 L 1196.092409 151.001278 L 1196.620462 145.568946 L 1197.148515 143.225601 L 1197.676568 144.056423 L 1198.20462 140.541405 L 1198.732673 138.155453 L 1199.260726 143.033873 L 1199.788779 145.462431 L 1200.316832 142.735629 L 1200.844884 143.587754 L 1201.372937 143.332117 L 1201.90099 145.547643 L 1202.429043 148.551386 L 1202.957096 148.487477 L 1203.485149 153.046442 L 1204.013201 156.710695 L 1204.541254 158.074137 L 1205.069307 158.947593 L 1205.59736 159.139327 L 1206.125413 160.822326 L 1206.653465 162.569237 L 1207.181518 160.886238 L 1207.709571 157.797188 L 1208.237624 155.90115 L 1208.765677 152.364721 L 1209.293729 148.018808 L 1209.821782 146.442375 L 1210.349835 143.779483 L 1210.877888 141.883503 L 1211.405941 144.695518 L 1211.933993 140.584011 L 1212.462046 139.859704 L 1212.990099 141.521349 L 1213.518152 136.621627 L 1214.046205 137.409843 L 1214.574257 140.690527 L 1215.10231 142.245656 L 1215.630363 147.124076 L 1216.158416 151.874734 L 1216.686469 153.25948 L 1217.214521 156.710695 L 1217.742574 159.203238 L 1218.270627 160.886238 L 1218.79868 162.547934 L 1219.326733 163.911377 L 1219.854785 161.780998 L 1220.382838 160.012782 L 1220.910891 159.096719 L 1221.438944 154.559012 L 1221.966997 149.020055 L 1222.49505 146.655407 L 1223.023102 145.568946 L 1223.551155 144.546396 L 1224.079208 143.566451 L 1224.607261 143.012569 L 1225.135314 141.713078 L 1225.663366 142.352172 L 1226.191419 142.629113 L 1226.719472 140.008826 L 1227.247525 138.496303 L 1227.775578 139.62537 L 1228.30363 143.928605 L 1228.831683 147.038863 L 1229.359736 150.78824 L 1229.887789 156.774606 L 1230.415842 159.799744 L 1230.943894 160.524073 L 1231.471947 162.292289 L 1232 161.163187 L 1232.528053 158.20196 L 1233.056106 153.152961 L 1233.584158 150.916063 L 1234.112211 150.61781 L 1234.640264 150.660418 L 1235.168317 150.553899 L 1235.69637 147.82708 L 1236.224422 146.67671 L 1236.752475 145.377218 L 1237.280528 141.627865 L 1237.808581 139.263216 L 1238.336634 138.027634 L 1238.864686 138.475 L 1239.392739 139.667976 L 1239.920792 141.904806 L 1240.448845 144.056423 L 1240.976898 147.614048 L 1241.50495 152.620366 L 1242.033003 154.686834 L 1242.561056 162.462719 L 1243.089109 168.598211 L 1243.617162 169.194717 L 1244.145215 169.109502 L 1244.673267 167.043034 L 1245.20132 163.868769 L 1245.729373 156.923732 L 1246.257426 150.127823 L 1246.785479 147.614048 L 1247.313531 142.629113 L 1247.841584 141.79829 L 1248.369637 143.076479 L 1248.89769 142.096534 L 1249.425743 141.968715 L 1249.953795 142.075231 L 1250.481848 142.011322 L 1251.009901 140.754436 L 1251.537954 140.733133 L 1252.066007 141.521349 L 1252.594059 140.520102 L 1253.122112 141.627865 L 1253.650165 143.396026 L 1254.178218 149.424815 L 1254.706271 158.116745 L 1255.234323 161.780998 L 1255.762376 165.61568 L 1256.290429 165.040477 L 1256.818482 163.740947 L 1257.346535 159.650618 L 1257.874587 154.622923 L 1258.40264 153.536429 L 1258.930693 150.063911 L 1259.458746 148.764418 L 1259.986799 149.637847 L 1260.514851 147.614048 L 1261.042904 145.952403 L 1261.570957 144.184242 L 1262.09901 142.139141 L 1262.627063 140.477496 L 1263.155116 140.946165 L 1263.683168 139.050185 L 1264.211221 141.436137 L 1264.739274 141.755684 L 1265.267327 143.885998 L 1265.79538 147.720564 L 1266.323432 154.431189 L 1266.851485 161.205795 L 1267.379538 164.763529 L 1267.907591 168.427781 L 1268.435644 165.040477 L 1268.963696 162.313592 L 1269.491749 155.538986 L 1270.019802 150.383468 L 1270.547855 146.783226 L 1271.075908 145.18549 L 1271.60396 148.189233 L 1272.132013 148.764418 L 1272.660066 149.744362 L 1273.188119 147.443623 L 1273.716172 147.294501 L 1274.244224 142.032625 L 1274.772277 137.686784 L 1275.30033 135.55647 L 1275.828383 132.637939 L 1276.356436 133.681793 L 1276.884488 136.749446 L 1277.412541 143.268207 L 1277.940594 152.513847 L 1278.468647 169.15211 L 1278.9967 176.224969 L 1279.524752 184.426928 L 1280.052805 179.804006 L 1280.580858 169.130805 L 1281.108911 154.537708 L 1281.636964 139.540157 L 1282.165017 132.424908 L 1282.693069 130.720656 L 1283.221122 138.581516 L 1283.749175 146.698013 L 1284.277228 159.245846 L 1284.805281 164.401364 L 1285.333333 163.400086 L 1285.861386 154.772049 L 1286.389439 141.840897 L 1286.917492 131.934936 L 1287.445545 125.352265 L 1287.973597 121.283365 L 1288.50165 123.605407 L 1289.029703 129.208133 L 1289.557756 142.373475 L 1290.085809 161.035364 L 1290.613861 176.11845 L 1291.141914 191.308054 L 1291.669967 186.685131 L 1292.19802 178.781424 L 1292.726073 162.228377 L 1293.254125 143.332117 L 1293.782178 127.567791 L 1294.310231 120.409936 L 1294.838284 121.901156 L 1295.366337 132.957486 L 1295.894389 150.575202 L 1296.422442 161.46144 L 1296.950495 168.87516 L 1297.478548 165.189604 L 1298.006601 155.645505 L 1298.534653 141.329621 L 1299.062706 131.338448 L 1299.590759 121.539002 L 1300.118812 118.748291 L 1300.646865 127.823429 L 1301.174917 142.820841 L 1301.70297 156.604176 L 1302.231023 190.136344 L 1302.759076 192.351939 L 1303.287129 203.81338 L 1303.815182 195.142736 L 1304.343234 176.480614 L 1304.871287 154.537708 L 1305.39934 133.149215 L 1305.927393 119.856054 L 1306.455446 111.505222 L 1306.983498 126.673059 L 1307.511551 134.043947 L 1308.039604 156.561568 L 1308.567657 165.083085 L 1309.09571 173.434171 L 1309.623762 161.163187 L 1310.151815 153.557733 L 1310.679868 132.957486 L 1311.207921 120.111692 L 1311.735974 112.570379 L 1312.264026 112.016498 L 1312.792079 122.455037 L 1313.320132 138.730638 L 1313.848185 156.668087 L 1314.376238 183.979549 L 1314.90429 201.55518 L 1315.432343 190.349384 L 1315.960396 200.809544 L 1316.488449 164.38006 L 1317.016502 152.620366 L 1317.544554 124.414926 L 1318.072607 121.325971 L 1318.60066 109.907487 L 1319.128713 126.225693 L 1319.656766 143.055176 L 1320.184818 158.180656 L 1320.712871 175.138475 L 1321.240924 175.117172 L 1321.768977 166.68087 L 1322.29703 152.215594 L 1322.825083 137.068993 L 1323.353135 122.156793 L 1323.881188 117.72574 L 1324.409241 118.215712 L 1324.937294 124.862292 L 1325.465347 139.582764 L 1325.993399 152.833404 L 1326.521452 179.846612 L 1327.049505 195.824458 L 1327.577558 184.384322 L 1328.105611 203.919896 L 1328.633663 163.953985 L 1329.161716 158.628036 L 1329.689769 132.084058 L 1330.217822 124.308411 L 1330.745875 111.42001 L 1331.273927 119.15305 L 1331.80198 137.218115 L 1332.330033 145.739372 L 1332.858086 171.389007 L 1333.386139 170.856413 L 1333.914191 171.51683 L 1334.442244 155.688113 L 1334.970297 145.142884 L 1335.49835 130.486322 L 1336.026403 122.859797 L 1336.554455 124.798383 L 1337.082508 123.562801 L 1337.610561 134.661738 L 1338.138614 147.273198 L 1338.666667 163.293566 L 1339.194719 167.74606 L 1339.722772 204.580314 L 1340.250825 177.950575 L 1340.778878 191.819345 L 1341.306931 176.608436 L 1341.834983 151.363443 L 1342.363036 140.946165 L 1342.891089 124.798383 L 1343.419142 124.71317 L 1343.947195 117.193161 L 1344.475248 139.56146 L 1345.0033 144.43988 L 1345.531353 158.670643 L 1346.059406 167.959097 L 1346.587459 158.904985 L 1347.115512 153.855986 L 1347.643564 138.176756 L 1348.171617 131.444963 L 1348.69967 121.45379 L 1349.227723 123.28586 L 1349.755776 124.052773 L 1350.283828 128.185583 L 1350.811881 144.397274 L 1351.339934 170.771198 L 1351.867987 169.32254 L 1352.39604 195.5049 L 1352.924092 200.04261 L 1353.452145 175.266299 L 1353.980198 184.916916 L 1354.508251 153.813379 L 1355.036304 142.735629 L 1355.564356 122.795888 L 1356.092409 123.62671 L 1356.620462 125.970056 L 1357.148515 136.919871 L 1357.676568 160.694504 L 1358.20462 165.679591 L 1358.732673 169.15211 L 1359.260726 165.530465 L 1359.788779 153.08905 L 1360.316832 139.305823 L 1360.844884 129.378558 L 1361.372937 124.457533 L 1361.90099 118.663078 L 1362.429043 122.582856 L 1362.957096 132.850971 L 1363.485149 136.664233 L 1364.013201 174.179805 L 1364.541254 166.212186 L 1365.069307 190.796763 L 1365.59736 197.102683 L 1366.125413 168.427781 L 1366.653465 181.955688 L 1367.181518 150.873455 L 1367.709571 140.520102 L 1368.237624 122.114187 L 1368.765677 119.941267 L 1369.293729 126.460028 L 1369.821782 130.124168 L 1370.349835 161.930124 L 1370.877888 164.167022 L 1371.405941 169.961654 L 1371.933993 169.301236 L 1372.462046 152.172987 L 1372.990099 141.649168 L 1373.518152 131.849723 L 1374.046205 123.456285 L 1374.574257 119.280869 L 1375.10231 119.536507 L 1375.630363 129.25074 L 1376.158416 134.555222 L 1376.686469 170.984236 L 1377.214521 171.495527 L 1377.742574 190.455902 L 1378.270627 208.542823 L 1378.79868 176.949296 L 1379.326733 189.071156 L 1379.854785 160.566681 L 1380.382838 141.926109 L 1380.910891 124.074076 L 1381.438944 119.472597 L 1381.966997 126.161784 L 1382.49505 127.610398 L 1383.023102 157.328505 L 1383.551155 165.189604 L 1384.079208 167.724755 L 1384.607261 173.583299 L 1385.135314 152.726885 L 1385.663366 143.885998 L 1386.191419 130.976294 L 1386.719472 121.198152 L 1387.247525 119.238263 L 1387.775578 114.998938 L 1388.30363 127.376063 L 1388.831683 133.31964 L 1389.359736 156.731998 L 1389.887789 153.941202 L 1390.415842 197.486155 L 1390.943894 176.885387 L 1391.471947 184.405625 L 1392 188.922029 L 1392.528053 155.858543 L 1393.056106 151.959949 L 1393.584158 126.246997 L 1394.112211 127.525185 L 1394.640264 120.835999 L 1395.168317 136.408595 L 1395.69637 157.690669 L 1396.224422 166.148274 L 1396.752475 178.781424 L 1397.280528 170.089477 L 1397.808581 161.333617 L 1398.336634 145.86719 L 1398.864686 132.211876 L 1399.392739 129.506377 L 1399.920792 120.047782 L 1400.448845 121.262061 L 1400.976898 127.503882 L 1401.50495 134.640435 L 1402.033003 147.102773 L 1402.561056 161.077972 L 1403.089109 190.242863 L 1403.617162 165.594376 L 1404.145215 197.337027 L 1404.673267 174.286323 L 1405.20132 155.368556 L 1405.729373 147.635351 L 1406.257426 126.246997 L 1406.785479 127.248244 L 1407.313531 118.726987 L 1407.841584 144.248152 L 1408.369637 152.897316 L 1408.89769 166.190882 L 1409.425743 181.018321 L 1409.953795 166.425224 L 1410.481848 160.396251 L 1411.009901 144.461183 L 1411.537954 126.438725 L 1412.066007 124.095379 L 1412.594059 118.769594 L 1413.122112 127.567791 L 1413.650165 128.782071 L 1414.178218 142.671719 L 1414.706271 148.572689 L 1415.234323 175.713678 L 1415.762376 163.463997 L 1416.290429 191.819345 L 1416.818482 192.309333 L 1417.346535 165.487858 L 1417.874587 179.186197 L 1418.40264 146.399769 L 1418.930693 141.05268 L 1419.458746 119.195657 L 1419.986799 126.523937 L 1420.514851 129.080315 L 1421.042904 137.38854 L 1421.570957 167.298679 L 1422.09901 165.487858 L 1422.627063 169.429058 L 1423.155116 162.590542 L 1423.683168 143.907301 L 1424.211221 131.530176 L 1424.739274 122.689372 L 1425.267327 123.179344 L 1425.79538 120.218207 L 1426.323432 131.657995 L 1426.851485 133.511368 L 1427.379538 143.246904 L 1427.907591 153.302088 L 1428.435644 161.930124 L 1428.963696 193.843203 L 1429.491749 165.040477 L 1430.019802 199.573925 L 1430.547855 171.197274 L 1431.075908 163.059225 L 1431.60396 149.25439 L 1432.132013 134.768253 L 1432.660066 135.407348 L 1433.188119 124.564048 L 1433.716172 153.387303 L 1434.244224 157.477631 L 1434.772277 170.515553 L 1435.30033 177.822754 L 1435.828383 167.319984 L 1436.356436 153.131657 L 1436.884488 134.597828 L 1437.412541 128.462523 L 1437.940594 117.747043 L 1438.468647 121.858549 L 1438.9967 123.861045 L 1439.524752 121.624215 L 1440.052805 133.511368 L 1440.580858 135.045194 L 1441.108911 163.037921 L 1441.636964 157.158074 L 1442.165017 194.439712 L 1442.693069 183.723904 L 1443.221122 176.501917 L 1443.749175 181.827867 L 1444.277228 147.273198 L 1444.805281 145.206793 L 1445.333333 121.688124 L 1445.861386 131.913632 L 1446.389439 132.105361 L 1446.917492 152.982531 L 1447.445545 169.897742 L 1447.973597 172.731147 L 1448.50165 176.523221 L 1449.029703 153.344695 L 1449.557756 146.804529 L 1450.085809 128.44122 L 1450.613861 128.036461 L 1451.141914 127.482579 L 1451.669967 128.888586 L 1452.19802 136.919871 L 1452.726073 129.570287 L 1453.254125 141.201802 L 1453.782178 135.449954 L 1454.310231 172.901577 L 1454.838284 163.357478 L 1455.366337 184.618662 L 1455.894389 197.997446 L 1456.422442 166.318705 L 1456.950495 173.689817 L 1457.478548 135.726895 L 1458.006601 138.837154 L 1458.534653 114.658087 L 1459.062706 141.521349 L 1459.590759 142.60781 L 1460.118812 165.977844 L 1460.646865 177.993184 L 1461.174917 172.731147 L 1461.70297 170.38773 L 1462.231023 144.461183 L 1462.759076 133.340943 L 1463.287129 121.943762 L 1463.815182 124.798383 L 1464.343234 127.077819 L 1464.871287 131.892329 L 1465.39934 130.891082 L 1465.927393 130.827172 L 1466.455446 134.704344 L 1466.983498 139.795795 L 1467.511551 164.38006 L 1468.039604 186.280359 L 1468.567657 173.988071 L 1469.09571 201.427356 L 1469.623762 164.465276 L 1470.151815 159.522795 L 1470.679868 133.277033 L 1471.207921 136.664233 L 1471.735974 125.671812 L 1472.264026 148.402264 L 1472.792079 164.635706 L 1473.320132 172.880274 L 1473.848185 183.255219 L 1474.376238 170.877716 L 1474.90429 158.074137 L 1475.432343 138.475 L 1475.960396 130.614141 L 1476.488449 122.795888 L 1477.016502 130.550231 L 1477.544554 131.721904 L 1478.072607 134.512616 L 1478.60066 124.478836 L 1479.128713 122.433734 L 1479.656766 124.414926 L 1480.184818 145.909797 L 1480.712871 156.710695 L 1481.240924 202.19429 L 1481.768977 171.389007 L 1482.29703 194.546227 L 1482.825083 151.299531 L 1483.353135 146.783226 L 1483.881188 119.003928 L 1484.409241 136.387292 L 1484.937294 131.807117 L 1485.465347 157.562846 L 1485.993399 170.38773 L 1486.521452 177.204942 L 1487.049505 172.049426 L 1487.577558 164.806136 L 1488.105611 146.932348 L 1488.633663 137.409843 L 1489.161716 136.493808 L 1489.689769 135.109104 L 1490.217822 143.246904 L 1490.745875 139.476248 L 1491.273927 135.343438 L 1491.80198 123.158041 L 1492.330033 128.121673 L 1492.858086 125.842237 L 1493.386139 180.592246 L 1493.914191 158.500213 L 1494.442244 218.278656 L 1494.970297 168.449084 L 1495.49835 177.396678 L 1496.026403 140.690527 L 1496.554455 139.263216 L 1497.082508 123.775832 L 1497.610561 143.204298 L 1498.138614 153.152961 L 1498.666667 161.46144 L 1499.194719 170.068172 L 1499.722772 164.188326 L 1500.250825 155.794631 L 1500.778878 149.680453 L 1501.306931 143.417329 L 1501.834983 132.701849 L 1502.363036 134.129159 L 1502.891089 132.51012 L 1503.419142 133.830915 L 1503.947195 135.045194 L 1504.475248 128.398614 L 1505.0033 121.432487 L 1505.531353 127.993854 L 1506.059406 137.068993 L 1506.587459 190.115041 L 1507.115512 180.698764 L 1507.643564 202.620368 L 1508.171617 167.852578 L 1508.69967 153.685556 L 1509.227723 137.154205 L 1509.755776 145.249399 L 1510.283828 143.843392 L 1510.811881 149.978697 L 1511.339934 160.971454 L 1511.867987 158.777162 L 1512.39604 161.90882 L 1512.924092 161.397529 L 1513.452145 155.517682 L 1513.980198 151.342139 L 1514.508251 145.973706 L 1515.036304 143.204298 L 1515.564356 137.558965 L 1516.092409 139.050185 L 1516.620462 133.617884 L 1517.148515 136.003836 L 1517.676568 121.752034 L 1518.20462 129.18683 L 1518.732673 126.864788 L 1519.260726 157.903707 L 1519.788779 179.590967 L 1520.316832 196.634003 L 1520.844884 172.560717 L 1521.372937 169.450363 L 1521.90099 141.713078 L 1522.429043 138.411091 L 1522.957096 141.201802 L 1523.485149 151.043886 L 1524.013201 145.441128 L 1524.541254 153.536429 L 1525.069307 149.893484 L 1525.59736 150.61781 L 1526.125413 155.11291 L 1526.653465 158.947593 L 1527.181518 148.721811 L 1527.709571 145.334612 L 1528.237624 136.046442 L 1528.765677 137.175508 L 1529.293729 138.645425 L 1529.821782 139.241913 L 1530.349835 136.898568 L 1530.877888 124.883596 L 1531.405941 134.363494 L 1531.933993 129.804621 L 1532.462046 184.469537 L 1532.990099 166.57435 L 1533.518152 212.505328 L 1534.046205 150.042608 L 1534.574257 168.960375 L 1535.10231 141.542653 L 1535.630363 155.517682 L 1536.158416 150.724329 L 1536.686469 161.887516 L 1537.214521 148.125323 L 1537.742574 148.018808 L 1538.270627 146.953651 L 1538.79868 151.874734 L 1539.326733 151.555177 L 1539.854785 154.282062 L 1540.382838 143.459935 L 1540.910891 133.596581 L 1541.438944 130.315897 L 1541.966997 129.421165 L 1542.49505 138.730638 L 1543.023102 137.026386 L 1543.551155 131.977542 L 1544.079208 119.366082 L 1544.607261 133.788309 L 1545.135314 139.348429 L 1545.663366 204.260757 L 1546.191419 171.026844 L 1546.719472 205.79463 L 1547.247525 142.139141 L 1547.775578 164.060503 L 1548.30363 133.639187 L 1548.831683 173.114614 L 1549.359736 150.191734 L 1549.887789 168.001705 L 1550.415842 148.402264 L 1550.943894 154.047721 L 1551.471947 148.657902 L 1552 163.463997 L 1552.528053 155.581594 L 1553.056106 151.789519 L 1553.584158 136.515111 L 1554.112211 126.758272 L 1554.640264 131.125416 L 1555.168317 136.64293 L 1555.69637 140.264464 L 1556.224422 133.894825 L 1556.752475 120.495148 L 1557.280528 123.051525 L 1557.808581 128.84598 L 1558.336634 181.401791 L 1558.864686 172.347677 L 1559.392739 200.788241 L 1559.920792 155.262037 L 1560.448845 145.547643 L 1560.976898 152.726885 L 1561.50495 145.632856 L 1562.033003 174.243717 L 1562.561056 151.704303 L 1563.089109 158.095441 L 1563.617162 136.855961 L 1564.145215 160.950149 L 1564.673267 151.810822 L 1565.20132 174.669793 L 1565.729373 155.837239 L 1566.257426 146.506285 L 1566.785479 126.481331 L 1567.313531 127.972551 L 1567.841584 132.062754 L 1568.369637 140.498799 L 1568.89769 134.043947 L 1569.425743 117.981378 L 1569.953795 117.299677 L 1570.481848 129.463771 L 1571.009901 156.689391 L 1571.537954 211.397528 L 1572.066007 178.03579 L 1572.594059 191.457181 L 1573.122112 129.357255 L 1573.650165 167.319984 L 1574.178218 134.959982 L 1574.706271 186.386877 L 1575.234323 150.745633 L 1575.762376 153.195569 L 1576.290429 135.748198 L 1576.818482 143.076479 L 1577.346535 165.700895 L 1577.874587 166.829996 L 1578.40264 171.772476 L 1578.930693 141.968715 L 1579.458746 135.130407 L 1579.986799 124.43623 L 1580.514851 138.964972 L 1581.042904 141.180499 L 1581.570957 138.751941 L 1582.09901 117.022736 L 1582.627063 108.714511 L 1583.155116 115.595426 L 1583.683168 136.089048 L 1584.211221 220.749893 L 1584.739274 156.625479 L 1585.267327 199.446101 L 1585.79538 118.513956 L 1586.323432 157.328505 L 1586.851485 146.932348 L 1587.379538 177.69493 L 1587.907591 171.900298 L 1588.435644 138.901063 L 1588.963696 153.131657 L 1589.491749 131.0189 L 1590.019802 175.77759 L 1590.547855 167.511717 L 1591.075908 181.103537 L 1591.60396 144.162939 L 1592.132013 138.517606 L 1592.660066 127.69561 L 1593.188119 140.946165 L 1593.716172 153.536429 L 1594.244224 137.899815 L 1594.772277 122.646766 L 1595.30033 102.493993 L 1595.828383 116.064095 L 1596.356436 125.948753 L 1596.884488 229.484447 L 1597.412541 155.411163 L 1597.940594 190.903281 L 1598.468647 114.232025 L 1598.9967 144.802033 L 1599.524752 152.002556 L 1600.052805 171.96421 L 1600.580858 175.77759 L 1601.108911 124.904899 L 1601.636964 151.683 L 1602.165017 128.228189 L 1602.693069 182.509588 L 1603.221122 175.77759 L 1603.749175 174.946741 L 1604.277228 144.333364 L 1604.805281 126.779575 L 1605.333333 132.339695 L 1605.861386 140.562708 L 1606.389439 160.204516 L 1606.917492 133.958734 L 1607.445545 129.698106 L 1607.973597 101.301017 L 1608.50165 125.18184 L 1609.029703 163.996592 L 1609.557756 223.98807 L 1610.085809 172.198553 L 1610.613861 168.406476 L 1611.141914 106.520287 L 1611.669967 160.119301 L 1612.19802 148.636599 L 1612.726073 182.168727 L 1613.254125 153.515126 L 1613.782178 120.495148 L 1614.310231 135.236923 L 1614.838284 138.325878 L 1615.366337 185.513422 L 1615.894389 173.732426 L 1616.422442 171.815083 L 1616.950495 133.639187 L 1617.478548 130.124168 L 1618.006601 138.581516 L 1618.534653 150.426076 L 1619.062706 158.691947 L 1619.590759 133.127911 L 1620.118812 116.894917 L 1620.646865 105.604252 L 1621.174917 129.825924 L 1621.70297 176.224969 L 1622.231023 217.937795 L 1622.759076 165.786111 L 1623.287129 158.606732 L 1623.815182 104.581701 L 1624.343234 176.097145 L 1624.871287 160.886238 L 1625.39934 184.107371 L 1625.927393 153.792075 L 1626.455446 111.824769 L 1626.983498 142.799538 L 1627.511551 144.056423 L 1628.039604 192.394548 L 1628.567657 168.449084 L 1629.09571 159.139327 L 1629.623762 123.733226 L 1630.151815 123.22195 L 1630.679868 150.639114 L 1631.207921 145.206793 L 1631.735974 157.477631 L 1632.264026 120.069085 L 1632.792079 104.816036 L 1633.320132 109.609243 L 1633.848185 127.75952 L 1634.376238 243.736686 L 1634.90429 157.264593 L 1635.432343 190.200256 L 1635.960396 103.324816 L 1636.488449 130.209381 L 1637.016502 173.54069 L 1637.544554 167.234769 L 1638.072607 184.874307 L 1638.60066 106.285953 L 1639.128713 137.175508 L 1639.656766 127.056516 L 1640.184818 181.359182 L 1640.712871 190.39199 L 1641.240924 161.056669 L 1641.768977 146.804529 L 1642.29703 115.105453 L 1642.825083 147.42232 L 1643.353135 148.679205 L 1643.881188 163.165744 L 1644.409241 134.299584 L 1644.937294 110.738309 L 1645.465347 111.143069 L 1645.993399 120.857302 L 1646.521452 227.75884 L 1647.049505 186.259056 L 1647.577558 182.509588 L 1648.105611 135.705592 L 1648.633663 101.364927 L 1649.161716 189.646357 L 1649.689769 153.429911 L 1650.217822 197.997446 L 1650.745875 123.754529 L 1651.273927 119.55781 L 1651.80198 134.235675 L 1652.330033 153.770771 L 1652.858086 198.615252 L 1653.386139 156.497657 L 1653.914191 160.438858 L 1654.442244 111.526525 L 1654.970297 140.775739 L 1655.49835 146.719316 L 1656.026403 154.047721 L 1656.554455 148.402264 L 1657.082508 104.645611 L 1657.610561 113.976387 L 1658.138614 106.648106 L 1658.666667 240.903284 L 1659.194719 167.213464 L 1659.722772 187.984662 L 1660.250825 124.159289 L 1660.778878 108.054113 L 1661.306931 187.643801 L 1661.834983 154.66553 L 1662.363036 197.464852 L 1662.891089 118.194409 L 1663.419142 128.079067 L 1663.947195 136.152958 L 1664.475248 156.817213 L 1665.0033 196.144015 L 1665.531353 154.260758 L 1666.059406 160.012782 L 1666.587459 113.081655 L 1667.115512 146.399769 L 1667.643564 149.978697 L 1668.171617 153.536429 L 1668.69967 145.52634 L 1669.227723 103.665666 L 1669.755776 124.43623 L 1670.283828 128.015157 L 1670.811881 243.587564 L 1671.339934 156.369834 L 1671.867987 172.837665 L 1672.39604 99.618069 L 1672.924092 144.269455 L 1673.452145 161.90882 L 1673.980198 163.804857 L 1674.508251 177.055817 L 1675.036304 102.515296 L 1675.564356 146.33586 L 1676.092409 134.214372 L 1676.620462 175.628463 L 1677.148515 177.332766 L 1677.676568 149.59524 L 1678.20462 149.914787 L 1678.732673 118.023984 L 1679.260726 160.651896 L 1679.788779 145.292006 L 1680.316832 160.971454 L 1680.844884 128.249492 L 1681.372937 113.869871 L 1681.90099 120.921211 L 1682.429043 214.358758 L 1682.957096 184.086067 L 1683.485149 174.776311 L 1684.013201 138.13415 L 1684.541254 98.531609 L 1685.069307 186.067319 L 1685.59736 144.248152 L 1686.125413 182.190031 L 1686.653465 128.015157 L 1687.181518 123.96756 L 1687.709571 149.765665 L 1688.237624 147.401017 L 1688.765677 189.071156 L 1689.293729 139.327126 L 1689.821782 154.4951 L 1690.349835 123.861045 L 1690.877888 131.849723 L 1691.405941 155.965062 L 1691.933993 137.367237 L 1692.462046 143.779483 L 1692.990099 109.247089 L 1693.518152 134.448706 L 1694.046205 219.940348 L 1694.574257 179.356627 L 1695.10231 184.192586 L 1695.630363 134.427403 L 1696.158416 110.056609 L 1696.686469 176.970602 L 1697.214521 150.213038 L 1697.742574 166.702173 L 1698.270627 119.110444 L 1698.79868 123.030222 L 1699.326733 150.745633 L 1699.854785 160.22582 L 1700.382838 188.005965 L 1700.910891 145.824584 L 1701.438944 142.501294 L 1701.966997 130.27329 L 1702.49505 137.132902 L 1703.023102 149.552634 L 1703.551155 144.184242 L 1704.079208 129.122921 L 1704.607261 116.894917 L 1705.135314 137.282024 L 1705.663366 248.593948 L 1706.191419 163.314871 L 1706.719472 196.527482 L 1707.247525 122.220703 L 1707.775578 130.805869 L 1708.30363 177.098424 L 1708.831683 152.407329 L 1709.359736 173.689817 L 1709.887789 100.129344 L 1710.415842 135.662985 L 1710.943894 138.432394 L 1711.471947 167.021731 L 1712 174.584577 L 1712.528053 131.168022 L 1713.056106 135.513863 L 1713.584158 109.18318 L 1714.112211 135.812107 L 1714.640264 140.094039 L 1715.168317 137.942422 L 1715.69637 114.381146 L 1716.224422 125.778327 L 1716.752475 211.95143 L 1717.280528 199.147847 L 1717.808581 195.632724 L 1718.336634 163.101833 L 1718.864686 107.649354 L 1719.392739 193.374521 L 1719.920792 149.978697 L 1720.448845 179.164891 L 1720.976898 137.814603 L 1721.50495 114.33854 L 1722.033003 149.936091 L 1722.561056 149.957394 L 1723.089109 193.161484 L 1723.617162 142.714325 L 1724.145215 139.518854 L 1724.673267 121.219455 L 1725.20132 117.065342 L 1725.729373 141.393531 L 1726.257426 126.779575 L 1726.785479 115.914973 L 1727.313531 119.792145 L 1727.841584 218.001705 L 1728.369637 190.583723 L 1728.89769 192.6928 L 1729.425743 159.88496 L 1729.953795 115.14806 L 1730.481848 194.375797 L 1731.009901 155.28334 L 1731.537954 174.09459 L 1732.066007 116.468854 L 1732.594059 121.262061 L 1733.122112 146.506285 L 1733.650165 157.711973 L 1734.178218 189.902002 L 1734.706271 129.25074 L 1735.234323 140.264464 L 1735.762376 112.676895 L 1736.290429 133.703096 L 1736.818482 145.952403 L 1737.346535 108.394964 L 1737.874587 114.445056 L 1738.40264 128.611645 L 1738.930693 241.393267 L 1739.458746 165.083085 L 1739.986799 191.670217 L 1740.514851 124.265804 L 1741.042904 165.083085 L 1741.570957 181.252664 L 1742.09901 172.283768 L 1742.627063 172.198553 L 1743.155116 87.667006 L 1743.683168 151.193012 L 1744.211221 146.591497 L 1744.739274 182.850449 L 1745.267327 166.40392 L 1745.79538 123.434982 L 1746.323432 124.095379 L 1746.851485 111.121766 L 1747.379538 153.898594 L 1747.907591 126.353512 L 1748.435644 113.379899 L 1748.963696 123.371072 L 1749.491749 210.012782 L 1750.019802 161.397529 L 1750.547855 185.896889 L 1751.075908 135.258226 L 1751.60396 146.804529 L 1752.132013 171.644653 L 1752.660066 158.138049 L 1753.188119 173.13592 L 1753.716172 104.389973 L 1754.244224 144.887246 L 1754.772277 153.216873 L 1755.30033 167.91649 L 1755.828383 166.126971 L 1756.356436 125.629205 L 1756.884488 126.907394 L 1757.412541 106.072921 L 1757.940594 154.111632 L 1758.468647 125.501387 L 1758.9967 129.59159 L 1759.524752 171.112059 L 1760.052805 201.448659 L 1760.580858 182.317852 L 1761.108911 179.2075 L 1761.636964 139.241913 L 1762.165017 186.301662 L 1762.693069 161.248402 L 1763.221122 170.28121 L 1763.749175 144.546396 L 1764.277228 107.521535 L 1764.805281 146.974954 L 1765.333333 139.369732 L 1765.861386 170.579463 L 1766.389439 130.315897 L 1766.917492 125.948753 L 1767.445545 113.955084 L 1767.973597 122.433734 L 1768.50165 138.602819 L 1769.029703 117.491405 L 1769.557756 148.84963 L 1770.085809 209.288454 L 1770.613861 155.368556 L 1771.141914 185.257777 L 1771.669967 132.680546 L 1772.19802 186.365574 L 1772.726073 171.112059 L 1773.254125 157.797188 L 1773.782178 163.421389 L 1774.310231 106.562893 L 1774.838284 151.533873 L 1775.366337 152.151683 L 1775.894389 162.420111 L 1776.422442 142.650416 L 1776.950495 119.21696 L 1777.478548 112.719501 L 1778.006601 117.448799 L 1778.534653 133.767006 L 1779.062706 116.894917 L 1779.590759 149.616543 L 1780.118812 215.38134 L 1780.646865 154.899872 L 1781.174917 190.519814 L 1781.70297 137.899815 L 1782.231023 197.933531 L 1782.759076 173.455475 L 1783.287129 152.662974 L 1783.815182 153.728164 L 1784.343234 99.511553 L 1784.871287 159.735833 L 1785.39934 148.018808 L 1785.927393 167.596932 L 1786.455446 131.594085 L 1786.983498 116.724492 L 1787.511551 124.521442 L 1788.039604 129.612893 L 1788.567657 126.225693 L 1789.09571 125.416174 L 1789.623762 184.256498 L 1790.151815 180.230082 L 1790.679868 174.733702 L 1791.207921 168.598211 L 1791.735974 140.072736 L 1792.264026 212.207073 L 1792.792079 171.921601 L 1793.320132 169.961654 L 1793.848185 130.060259 L 1794.376238 136.536414 L 1794.90429 151.874734 L 1795.432343 147.443623 L 1795.960396 151.597784 L 1796.488449 103.580453 L 1797.016502 100.214557 L 1797.544554 118.130499 L 1798.072607 121.709427 L 1798.60066 129.59159 L 1799.128713 156.731998 L 1799.656766 204.942478 L 1800.184818 154.857265 L 1800.712871 188.197699 L 1801.240924 140.71183 L 1801.768977 206.518963 L 1802.29703 184.064764 L 1802.825083 170.55816 L 1803.353135 152.47124 L 1803.881188 125.799631 L 1804.409241 168.981679 L 1804.937294 140.882255 L 1805.465347 163.272263 L 1805.993399 105.071673 L 1806.521452 99.085491 L 1807.049505 123.988864 L 1807.577558 96.869964 L 1808.105611 135.407348 L 1808.633663 157.264593 L 1809.161716 204.345974 L 1809.689769 165.125692 L 1810.217822 175.820196 L 1810.745875 148.338355 L 1811.273927 199.595228 L 1811.80198 190.860675 L 1812.330033 168.555604 L 1812.858086 149.872181 L 1813.386139 126.971303 L 1813.914191 160.332339 L 1814.442244 144.354667 L 1814.970297 148.082717 L 1815.49835 94.67574 L 1816.026403 102.81354 L 1816.554455 104.070426 L 1817.082508 104.347367 L 1817.610561 127.546488 L 1818.138614 203.47252 L 1818.666667 185.066043 L 1819.194719 183.297828 L 1819.722772 171.751172 L 1820.250825 165.61568 L 1820.778878 207.669363 L 1821.306931 179.186197 L 1821.834983 172.475501 L 1822.363036 115.872366 L 1822.891089 133.724399 L 1823.419142 147.443623 L 1823.947195 136.280777 L 1824.475248 125.948753 L 1825.0033 84.791082 L 1825.531353 115.936276 L 1826.059406 83.257256 L 1826.587459 129.293346 L 1827.115512 160.438858 L 1827.643564 199.233064 L 1828.171617 183.468258 L 1828.69967 171.665957 L 1829.227723 158.329783 L 1829.755776 203.344696 L 1830.283828 203.025138 L 1830.811881 185.705156 L 1831.339934 151.214316 L 1831.867987 132.147967 L 1832.39604 149.446118 L 1832.924092 147.890989 L 1833.452145 138.219362 L 1833.980198 108.906239 L 1834.508251 110.930037 L 1835.036304 91.224631 L 1835.564356 116.63928 L 1836.092409 156.34853 L 1836.620462 189.369408 L 1837.148515 168.321261 L 1837.676568 177.758842 L 1838.20462 144.03512 L 1838.732673 198.061355 L 1839.260726 194.737966 L 1839.788779 192.415851 L 1840.316832 157.030251 L 1840.844884 130.230684 L 1841.372937 147.805776 L 1841.90099 133.681793 L 1842.429043 118.556562 L 1842.957096 115.169363 L 1843.485149 98.212062 L 1844.013201 92.801064 L 1844.541254 106.328559 L 1845.069307 175.692375 L 1845.59736 189.241586 L 1846.125413 174.392841 L 1846.653465 178.461866 L 1847.181518 155.56029 L 1847.709571 205.879848 L 1848.237624 191.18023 L 1848.765677 189.497232 L 1849.293729 147.294501 L 1849.821782 139.156701 L 1850.349835 142.501294 L 1850.877888 120.005176 L 1851.405941 130.145472 L 1851.933993 109.886184 L 1852.462046 95.229622 L 1852.990099 95.400047 L 1853.518152 108.224538 L 1854.046205 188.30422 L 1854.574257 158.564124 L 1855.10231 183.148701 L 1855.630363 146.421072 L 1856.158416 187.302941 L 1856.686469 201.406052 L 1857.214521 185.556028 L 1857.742574 188.666383 L 1858.270627 139.582764 L 1858.79868 156.689391 L 1859.326733 127.972551 L 1859.854785 135.15171 L 1860.382838 120.111692 L 1860.910891 95.400047 L 1861.438944 112.336045 L 1861.966997 91.373753 L 1862.49505 181.423094 L 1863.023102 157.946314 L 1863.551155 183.979549 L 1864.079208 162.228377 L 1864.607261 174.882829 L 1865.135314 202.428634 L 1865.663366 177.119727 L 1866.191419 185.769068 L 1866.719472 134.938679 L 1867.247525 153.728164 L 1867.775578 118.130499 L 1868.30363 141.137893 L 1868.831683 112.612986 L 1869.359736 100.661923 L 1869.887789 107.393716 L 1870.415842 98.531609 L 1870.943894 178.632297 L 1871.471947 160.268428 L 1872 183.297828 L 1872.528053 161.653175 L 1873.056106 175.862805 L 1873.584158 198.231785 L 1874.112211 177.780145 L 1874.640264 178.41926 L 1875.168317 137.665481 L 1875.69637 152.109075 L 1876.224422 118.492653 L 1876.752475 150.44738 L 1877.280528 121.901156 L 1877.808581 117.938771 L 1878.336634 106.498984 L 1878.864686 114.274631 L 1879.392739 156.007669 L 1879.920792 158.20196 L 1880.448845 177.141033 L 1880.976898 153.941202 L 1881.50495 176.01193 L 1882.033003 179.143588 L 1882.561056 189.923308 L 1883.089109 174.648487 L 1883.617162 151.917341 L 1884.145215 137.878512 L 1884.673267 127.35476 L 1885.20132 147.464926 L 1885.729373 121.901156 L 1886.257426 122.156793 L 1886.785479 99.021581 L 1887.313531 132.16927 L 1887.841584 150.106519 L 1888.369637 168.87516 L 1888.89769 174.179805 L 1889.425743 171.367704 L 1889.953795 184.512143 L 1890.481848 178.930551 L 1891.009901 193.097572 L 1891.537954 166.084364 L 1892.066007 155.155518 L 1892.594059 118.726987 L 1893.122112 135.343438 L 1893.650165 114.785906 L 1894.178218 118.748291 L 1894.706271 105.327311 L 1895.234323 111.185675 L 1895.762376 142.863447 L 1896.290429 150.042608 L 1896.818482 181.146145 L 1897.346535 170.685983 L 1897.874587 189.390711 L 1898.40264 187.643801 L 1898.930693 190.94589 L 1899.458746 180.613549 L 1899.986799 165.040477 L 1900.514851 145.015065 L 1901.042904 121.347274 L 1901.570957 138.453697 L 1902.09901 116.383642 L 1902.627063 122.518947 L 1903.155116 94.910075 L 1903.683168 126.95 L 1904.211221 139.838401 L 1904.739274 153.728164 L 1905.267327 172.326374 L 1905.79538 174.307626 L 1906.323432 184.767789 L 1906.851485 182.850449 L 1907.379538 186.578611 L 1907.907591 177.268854 L 1908.435644 164.337453 L 1908.963696 136.685536 L 1909.491749 132.872274 L 1910.019802 127.248244 L 1910.547855 112.762108 L 1911.075908 117.512708 L 1911.60396 101.492746 L 1912.132013 128.462523 L 1912.660066 128.270795 L 1913.188119 149.020055 L 1913.716172 159.948871 L 1914.244224 169.961654 L 1914.772277 184.341713 L 1915.30033 185.406904 L 1915.828383 192.607584 L 1916.356436 182.275246 L 1916.884488 178.738815 L 1917.412541 139.881008 L 1917.940594 154.473796 L 1918.468647 125.884843 L 1918.9967 127.75952 L 1919.524752 105.476433 L 1920.052805 112.889927 L 1920.580858 123.520194 L 1921.108911 129.229437 L 1921.636964 151.363443 L 1922.165017 153.728164 L 1922.693069 177.801448 L 1923.221122 178.525778 L 1923.749175 193.289306 L 1924.277228 185.577334 L 1924.805281 178.142309 L 1925.333333 162.036643 L 1925.861386 137.132902 L 1926.389439 146.634104 L 1926.917492 119.238263 L 1927.445545 118.194409 L 1927.973597 101.38623 L 1928.50165 118.726987 L 1929.029703 129.99635 L 1929.557756 134.384797 L 1930.085809 157.328505 L 1930.613861 159.671922 L 1931.141914 173.838944 L 1931.669967 177.69493 L 1932.19802 186.17384 L 1932.726073 178.355348 L 1933.254125 170.792501 L 1933.782178 150.575202 L 1934.310231 152.620366 L 1934.838284 142.416081 L 1935.366337 133.937431 L 1935.894389 130.997597 L 1936.422442 118.173106 L 1936.950495 135.002588 L 1937.478548 128.462523 L 1938.006601 148.743115 L 1938.534653 148.487477 L 1939.062706 161.482745 L 1939.590759 167.213464 L 1940.118812 170.813806 L 1940.646865 175.202387 L 1941.174917 164.422668 L 1941.70297 166.23349 L 1942.231023 141.393531 L 1942.759076 153.813379 L 1943.287129 128.824677 L 1943.815182 135.300832 L 1944.343234 123.307163 L 1944.871287 130.592838 L 1945.39934 131.402357 L 1945.927393 134.470009 L 1946.455446 147.592745 L 1946.983498 152.343417 L 1947.511551 171.644653 L 1948.039604 169.109502 L 1948.567657 178.99446 L 1949.09571 174.414147 L 1949.623762 173.753729 L 1950.151815 158.64934 L 1950.679868 156.987644 L 1951.207921 149.147874 L 1951.735974 138.048937 L 1952.264026 132.829668 L 1952.792079 124.329714 L 1953.320132 137.452449 L 1953.848185 134.555222 L 1954.376238 155.048999 L 1954.90429 140.200555 L 1955.432343 152.428632 L 1955.960396 150.149127 L 1956.488449 163.655731 L 1957.016502 165.33873 L 1957.544554 157.392416 L 1958.072607 151.661696 L 1958.60066 143.438632 L 1959.128713 149.275693 L 1959.656766 133.767006 L 1960.184818 136.941174 L 1960.712871 132.041451 L 1961.240924 140.37098 L 1961.768977 138.219362 L 1962.29703 149.488725 L 1962.825083 153.792075 L 1963.353135 164.465276 L 1963.881188 165.828718 L 1964.409241 164.99787 L 1964.937294 163.442694 L 1965.465347 165.083085 L 1965.993399 159.948871 L 1966.521452 153.238176 L 1967.049505 151.256924 L 1967.577558 147.741867 L 1968.105611 148.253142 L 1968.633663 145.377218 L 1969.161716 138.922366 L 1969.689769 142.586507 L 1970.217822 140.839649 L 1970.745875 147.379714 L 1971.273927 147.677958 L 1971.80198 148.50878 L 1972.330033 147.890989 L 1972.858086 153.983809 L 1973.386139 159.480188 L 1973.914191 158.159352 L 1974.442244 153.025138 L 1974.970297 154.175543 L 1975.49835 155.262037 L 1976.026403 147.656654 L 1976.554455 147.656654 L 1977.082508 135.961229 L 1977.610561 143.140388 L 1978.138614 137.665481 L 1978.666667 139.731886 L 1979.194719 140.285767 L 1979.722772 146.527588 L 1980.250825 155.794631 L 1980.778878 160.779719 L 1981.306931 164.784832 L 1981.834983 167.533022 L 1982.363036 165.658288 L 1982.891089 164.443971 L 1983.419142 153.579037 L 1983.947195 150.042608 L 1984.475248 142.842144 L 1985.0033 140.094039 L 1985.531353 137.835906 L 1986.059406 131.849723 L 1986.587459 132.084058 L 1987.115512 136.600324 L 1987.643564 143.182995 L 1988.171617 150.042608 L 1988.69967 145.675462 L 1989.227723 154.835961 L 1989.755776 152.449936 L 1990.283828 167.085641 L 1990.811881 157.775884 L 1991.339934 162.164466 L 1991.867987 155.28334 L 1992.39604 157.733277 L 1992.924092 156.455049 L 1993.452145 146.868438 L 1993.980198 149.573937 L 1994.508251 141.095287 L 1995.036304 147.656654 L 1995.564356 142.991266 L 1996.092409 146.783226 L 1996.620462 145.781978 L 1997.148515 151.661696 L 1997.676568 152.130379 L 1998.20462 154.218151 L 1998.732673 154.94248 L 1999.260726 159.671922 L 1999.788779 159.373669" stroke="blue" fill="white" fill-opacity="0.0" stroke-opacity="0.8"/></svg>